<?xml version="1.0" encoding="utf-8"?>
<!-- Generator: Adobe Illustrator 28.3.0, SVG Export Plug-In . SVG Version: 6.00 Build 0)  -->
<svg version="1.1" id="Layer_1" xmlns="http://www.w3.org/2000/svg" xmlns:xlink="http://www.w3.org/1999/xlink" x="0px" y="0px"
	 viewBox="0 0 1500 54" style="enable-background:new 0 0 1500 54;" xml:space="preserve">
<style type="text/css">
	.st0{fill:#FFFFFF;}
	.st1{fill:#CDCABE;}
</style>
<path class="st0" d="M678.69,42.56c0,0,3.88,0.05,4.47,0l2.33-32.65c-1,0-4.61,0-4.61,0l0-1.14h10.08l8.56,22.54l2.3,6.38
	L712.96,8.8l4.91-0.03l2.39,33.79c1.09,0,4.37,0.06,4.37,0.06l0.12,1.09h-14.11l0-1.14c0,0,4.17,0,4.79,0l-2.15-31.36l-1.41,3.85
	L700.71,43.7h-1.41l-10.88-28.59l-1.8-5.11l-2.27,32.56c0.81,0,5.25,0,5.25,0l0,1.14h-10.91L678.69,42.56z"/>
<path class="st0" d="M720.65,42.56c0,0,3.41,0,4.11,0V20.28c-0.58,0-4.11,0-4.11,0v-1.08l8.45-0.07v3.61
	c0.68-0.9,1.36-1.63,2.04-2.19c0.68-0.57,1.37-1.01,2.07-1.32s1.4-0.52,2.11-0.63c0.71-0.11,1.43-0.17,2.16-0.17
	c1.16,0,2.24,0.17,3.25,0.49c1.01,0.33,1.89,0.85,2.64,1.55s1.33,1.61,1.76,2.71c0.43,1.11,0.64,2.43,0.64,3.97v13.23
	c0,0.42,0.02,2.07,0.02,2.07l4.3,0.11l1.53,1.14l-15.19,0.02v-1.14l4.88-0.05c0,0-0.01-1.73-0.01-2.15V28.75
	c0-1.13-0.07-2.16-0.2-3.08c-0.13-0.92-0.41-1.71-0.83-2.36c-0.42-0.65-1-1.15-1.75-1.51c-0.75-0.35-1.73-0.53-2.96-0.53
	c-0.53,0-1.09,0.05-1.67,0.15c-0.58,0.1-1.15,0.26-1.71,0.47s-1.09,0.49-1.6,0.82s-0.96,0.74-1.35,1.22l0,18.63
	c1.21,0,0.04,0,0.04,0v1.14h-8.63V42.56z"/>
<path class="st0" d="M769.4,36.24c0,0,0.43,1.01,0.42,1.01c-0.85,1.77-1.54,2.76-2.53,3.69c-1.74,1.63-3.36,2.53-5.7,3.06
	c-0.33,0.08-0.67,0.15-1.01,0.19c-0.61,0.1-1.22,0.16-1.84,0.16c-2.96,0.01-6.53-1.36-8.67-3.93c-1.6-1.92-2.64-4.31-2.92-6.8
	c-0.52-4.51,0.8-9.42,4.22-12.4c2.22-1.94,5.23-2.95,8.18-2.8c1.98,0.1,3.95,0.72,5.54,1.9c2.71,2.02,4.27,5.83,3.68,9.18
	c-0.03,0.15-0.05,0.3-0.07,0.43h-17.28c-0.19,4.12,0.82,6.95,2.27,8.94c1.05,1.44,3.08,2.64,4.81,3.02
	c1.73,0.38,3.02,0.37,4.72-0.09c0.92-0.25,1.34-0.48,2.19-0.94c0.44-0.23,1.45-1.04,1.79-1.4C768.72,37.82,769.4,36.24,769.4,36.24z
	 M763.95,28.76c0.12-1.54,0.07-3.05-0.12-4.04c-0.19-0.99-0.49-1.86-0.92-2.62c-0.43-0.76-0.83-1.4-1.52-1.85
	c-0.68-0.45-1.34-0.9-2.66-0.9c-1.15,0-1.85,0.33-2.62,0.72c-0.77,0.39-1.44,1.06-2.01,1.77c-0.58,0.71-1.05,1.57-1.43,2.59
	s-0.93,2.82-1.12,4.33H763.95z"/>
<path class="st0" d="M767.02,20.28l-1.34-1.14h9.33l6.94,15.84l1.46,3.41l8.2-18.06l-6.24-0.05v-1.14h9.28v1.14h-1.75l-10.74,23.68
	h-1.04l-9.71-21.9c-0.16-0.37-0.8-1.75-0.8-1.75"/>
<path class="st0" d="M791.53,42.56c0,0,2.9,0,4.21,0V20.28c-0.53,0-1.09,0-1.09,0v-1.14h5.57v23.42c1.96,0,2.76,0,2.76,0l1.61,1.14
	h-13.06V42.56z"/>
<path class="st0" d="M822,36.79c0,3.43-3.05,7.54-10.61,7.54c-5.14,0-8.83-3.85-8.83-3.85s0.74-0.82,0.92-1.05
	c2.14,2.04,5.23,3.62,7.8,3.44c1.45-0.1,2.91-0.59,4.11-1.35c1.38-0.87,2.13-2.34,2.1-3.99c-0.03-1.89-1.86-3.09-4.52-3.93
	c-2.2-0.69-3.18-1.12-5.23-2.14c-2.16-1.07-4.36-3-4.42-5.78c-0.08-3.87,2.46-5.75,4.01-6.55c2.17-1.11,4.96-1.03,6.62-0.75
	c2.11,0.35,3.84,1,5.67,2.25c-0.04,0.24-0.5,0.72-0.59,0.96c-1.62-0.91-3.31-1.63-4.8-1.85c-1.57-0.23-3.39-0.19-4.69,0.45
	c-1.75,0.85-2.25,2.27-2.33,3.55c-0.08,1.32,0.79,3.1,2.48,3.82c2.01,0.86,3.28,1.02,6.02,1.95C820.39,31.09,822,33.96,822,36.79z"
	/>
<circle class="st0" cx="797.81" cy="12.4" r="3.63"/>
<rect x="708.26" y="8.77" class="st0" width="9.37" height="1.14"/>
<path class="st1" d="M37.01,22.76L27.44,1.1h9.48l4.58,14.5l4.83-14.5h9.39l-9.96,21.67H37.01z"/>
<path class="st1" d="M55.28,22.76V1.1h8.39v21.67H55.28z"/>
<path class="st1" d="M65.54,16.17l10.17-0.01c0.08,0.59,0.44,1.04,1.1,1.35c0.65,0.32,1.55,0.48,2.68,0.48s1.98-0.13,2.54-0.39
	c0.56-0.26,0.84-0.65,0.84-1.16c0-0.46-0.24-0.83-0.73-1.11c-0.49-0.28-1.24-0.48-2.26-0.61l-6.27-0.78
	c-2.6-0.31-4.55-1.01-5.87-2.09s-1.97-2.53-1.97-4.35c0-2.42,0.99-4.19,2.98-5.3s5.15-1.67,9.5-1.67c4.51,0,7.87,0.56,10.06,1.67
	s3.38,2.85,3.56,5.2h-9.76c-0.11-0.68-0.52-1.2-1.23-1.55c-0.71-0.35-1.71-0.52-3-0.52c-0.94,0-1.67,0.13-2.21,0.39
	s-0.81,0.61-0.81,1.05c0,0.41,0.21,0.72,0.62,0.94s1.28,0.42,2.59,0.6l7.65,1.08c2.39,0.34,4.18,1.04,5.36,2.09
	c1.18,1.05,1.77,2.46,1.77,4.24c0,2.66-1.18,4.6-3.54,5.84s-6.09,1.86-11.18,1.86c-4.04,0-7.15-0.62-9.31-1.88
	S65.57,18.51,65.54,16.17z"/>
<path class="st1" d="M103.16,1.1v10.59c0,2.18,0.33,3.69,0.99,4.53c0.66,0.85,1.8,1.27,3.42,1.27s2.76-0.42,3.41-1.26
	s0.97-2.35,0.97-4.54V1.1h8.41v11.38c0,3.76-1.02,6.51-3.07,8.26s-5.29,2.62-9.72,2.62c-4.4,0-7.64-0.88-9.7-2.64
	s-3.1-4.51-3.1-8.25V1.1H103.16z"/>
<path class="st1" d="M119.83,22.76l9.39-21.67h10.65l8.76,21.67h-9.1l-0.72-2.12h-9.21l-0.78,2.12H119.83z M131.58,15.29h5.38
	l-2.61-7.62L131.58,15.29z"/>
<path class="st1" d="M148.66,22.76V1.1h8.39v15.72h13.23v5.95H148.66z"/>
<path class="st1" d="M171.43,22.76V1.1h8.39v21.67H171.43z"/>
<path class="st1" d="M181.41,22.76v-4.8l12.7-11.43h-11.95V1.1h23.35v4.92l-12.63,11.04h12.2v5.7H181.41z"/>
<path class="st1" d="M207.13,22.76V1.1h8.39v21.67H207.13z"/>
<path class="st1" d="M218.71,22.76V1.1h9.93l8.36,12.48V1.1h8.13v21.67h-9.42l-9.1-12.69v12.69H218.71z"/>
<path class="st1" d="M271.18,20.85c-0.98,0.86-2.23,1.49-3.76,1.89s-3.43,0.6-5.72,0.6c-4.81,0-8.45-0.96-10.9-2.88
	c-2.45-1.92-3.68-4.76-3.68-8.52c0-3.77,1.23-6.61,3.68-8.53c2.45-1.92,6.08-2.88,10.9-2.88c4.05,0,7.3,0.69,9.74,2.07
	s3.82,3.29,4.15,5.74h-9.2c-0.45-0.88-1.04-1.53-1.78-1.96s-1.63-0.64-2.67-0.64c-1.75,0-3.15,0.56-4.2,1.68s-1.58,2.63-1.58,4.53
	c0,1.91,0.52,3.4,1.56,4.46c1.04,1.06,2.49,1.59,4.36,1.59c1.4,0,2.56-0.25,3.49-0.76s1.49-1.2,1.7-2.08h-3.49v-4.69h12.1v12.3
	h-3.78L271.18,20.85z"/>
<path class="st1" d="M288.01,22.76L297.4,1.1h10.65l8.76,21.67h-9.1l-0.72-2.12h-9.21L297,22.76H288.01z M299.76,15.29h5.38
	l-2.61-7.62L299.76,15.29z"/>
<path class="st1" d="M333.33,1.1c1.88,0,3.39,0.09,4.53,0.27c1.13,0.18,2.02,0.46,2.65,0.84c0.81,0.48,1.43,1.12,1.85,1.93
	c0.42,0.8,0.64,1.74,0.64,2.79c0,1.28-0.32,2.41-0.95,3.38c-0.63,0.97-1.51,1.67-2.62,2.1c0.96,0.4,1.63,0.9,2.01,1.49
	s0.61,1.63,0.68,3.13c0.01,0.17,0.02,0.4,0.03,0.69c0.14,2.83,0.52,4.4,1.14,4.72v0.34h-9.33c-0.28-0.46-0.44-1.35-0.47-2.67
	c-0.02-0.77-0.05-1.37-0.1-1.79c-0.09-0.79-0.35-1.35-0.8-1.67s-1.19-0.48-2.23-0.48h-5.01v6.61h-8.51V1.1H333.33z M325.34,10.46
	h4.89c1.28,0,2.18-0.15,2.7-0.45s0.78-0.81,0.78-1.52c0-0.7-0.25-1.19-0.74-1.47c-0.49-0.28-1.48-0.42-2.95-0.42h-4.69V10.46z"/>
<path class="st1" d="M363.13,10.2c-0.14-1.34-0.61-2.36-1.42-3.06s-1.92-1.05-3.33-1.05c-1.8,0-3.17,0.5-4.12,1.51
	c-0.95,1.01-1.43,2.46-1.43,4.35c0,1.88,0.48,3.33,1.43,4.32c0.95,1,2.33,1.49,4.12,1.49c1.3,0,2.35-0.29,3.14-0.89
	c0.8-0.59,1.32-1.47,1.58-2.63h9.68c-0.44,3-1.88,5.26-4.31,6.8s-5.8,2.3-10.08,2.3c-4.81,0-8.45-0.96-10.9-2.88
	c-2.45-1.92-3.68-4.76-3.68-8.52c0-3.77,1.23-6.61,3.68-8.53c2.45-1.92,6.08-2.88,10.9-2.88c4.49,0,7.97,0.83,10.43,2.5
	s3.76,4.05,3.91,7.17H363.13z"/>
<path class="st1" d="M374.4,22.76V1.1h8.39v7.5h9.58V1.1h8.39v21.67h-8.39V14h-9.58v8.76H374.4z"/>
<path class="st1" d="M404.02,22.76V1.1h8.39v21.67H404.02z"/>
<path class="st1" d="M421.15,22.76V6.59h-7.84V1.1h24.1v5.49h-7.87v16.17H421.15z"/>
<path class="st1" d="M438.34,22.76V1.1h22.95v5.32h-14.56v2.58h11.79v5.35h-11.79v2.84h15.28v5.58H438.34z"/>
<path class="st1" d="M481.27,10.2c-0.14-1.34-0.61-2.36-1.42-3.06s-1.92-1.05-3.33-1.05c-1.8,0-3.17,0.5-4.12,1.51
	c-0.95,1.01-1.43,2.46-1.43,4.35c0,1.88,0.48,3.33,1.43,4.32c0.95,1,2.33,1.49,4.12,1.49c1.3,0,2.35-0.29,3.14-0.89
	c0.8-0.59,1.32-1.47,1.58-2.63h9.68c-0.44,3-1.88,5.26-4.31,6.8s-5.8,2.3-10.08,2.3c-4.81,0-8.45-0.96-10.9-2.88
	c-2.45-1.92-3.68-4.76-3.68-8.52c0-3.77,1.23-6.61,3.68-8.53c2.45-1.92,6.08-2.88,10.9-2.88c4.49,0,7.97,0.83,10.43,2.5
	s3.76,4.05,3.91,7.17H481.27z"/>
<path class="st1" d="M498.07,22.76V6.59h-7.84V1.1h24.1v5.49h-7.87v16.17H498.07z"/>
<path class="st1" d="M523.65,1.1v10.59c0,2.18,0.33,3.69,0.99,4.53c0.66,0.85,1.8,1.27,3.42,1.27s2.76-0.42,3.41-1.26
	c0.65-0.84,0.97-2.35,0.97-4.54V1.1h8.41v11.38c0,3.76-1.02,6.51-3.07,8.26s-5.29,2.62-9.72,2.62c-4.4,0-7.64-0.88-9.71-2.64
	c-2.06-1.76-3.1-4.51-3.1-8.25V1.1H523.65z"/>
<path class="st1" d="M560.59,1.1c1.88,0,3.39,0.09,4.53,0.27c1.13,0.18,2.02,0.46,2.65,0.84c0.81,0.48,1.43,1.12,1.85,1.93
	c0.42,0.8,0.64,1.74,0.64,2.79c0,1.28-0.32,2.41-0.95,3.38c-0.63,0.97-1.51,1.67-2.62,2.1c0.96,0.4,1.63,0.9,2.01,1.49
	s0.61,1.63,0.68,3.13c0.01,0.17,0.02,0.4,0.03,0.69c0.14,2.83,0.52,4.4,1.14,4.72v0.34h-9.33c-0.28-0.46-0.44-1.35-0.47-2.67
	c-0.02-0.77-0.05-1.37-0.1-1.79c-0.09-0.79-0.35-1.35-0.8-1.67s-1.19-0.48-2.23-0.48h-5.01v6.61h-8.51V1.1H560.59z M552.6,10.46
	h4.89c1.28,0,2.18-0.15,2.7-0.45s0.78-0.81,0.78-1.52c0-0.7-0.25-1.19-0.74-1.47c-0.49-0.28-1.48-0.42-2.95-0.42h-4.69V10.46z"/>
<path class="st1" d="M572.33,22.76V1.1h22.95v5.32h-14.56v2.58h11.79v5.35h-11.79v2.84H596v5.58H572.33z"/>
<path class="st1" d="M598.06,19.76v-6.93h7.87v4.58c0,1.26-0.14,2.22-0.41,2.88c-0.27,0.66-0.74,1.24-1.39,1.75
	c-0.62,0.49-1.36,0.93-2.2,1.33s-1.8,0.75-2.87,1.05l-0.66-2.75c0.67-0.22,1.16-0.49,1.46-0.78s0.46-0.68,0.47-1.13H598.06z"/>
<path class="st1" d="M621.53,16.17l10.17-0.01c0.08,0.59,0.44,1.04,1.1,1.35c0.65,0.32,1.55,0.48,2.68,0.48s1.98-0.13,2.54-0.39
	c0.56-0.26,0.84-0.65,0.84-1.16c0-0.46-0.24-0.83-0.73-1.11c-0.49-0.28-1.24-0.48-2.26-0.61l-6.27-0.78
	c-2.6-0.31-4.55-1.01-5.87-2.09c-1.31-1.08-1.97-2.53-1.97-4.35c0-2.42,0.99-4.19,2.98-5.3s5.15-1.67,9.5-1.67
	c4.51,0,7.87,0.56,10.06,1.67s3.38,2.85,3.56,5.2h-9.76c-0.11-0.68-0.52-1.2-1.23-1.55c-0.71-0.35-1.71-0.52-3-0.52
	c-0.94,0-1.67,0.13-2.21,0.39s-0.81,0.61-0.81,1.05c0,0.41,0.21,0.72,0.62,0.94s1.28,0.42,2.59,0.6l7.65,1.08
	c2.39,0.34,4.18,1.04,5.36,2.09c1.18,1.05,1.77,2.46,1.77,4.24c0,2.66-1.18,4.6-3.54,5.84s-6.09,1.86-11.18,1.86
	c-4.04,0-7.15-0.62-9.31-1.88C622.66,20.3,621.56,18.51,621.53,16.17z"/>
<path class="st1" d="M650.75,22.76V1.1h16.2c3.07,0,5.43,0.61,7.1,1.84c1.66,1.23,2.5,2.96,2.5,5.19c0,2.23-0.83,3.95-2.5,5.18
	c-1.67,1.23-4.03,1.84-7.1,1.84h-7.81v7.62H650.75z M663.74,5.76h-4.6v4.67h4.6c1.37,0,2.31-0.17,2.83-0.52
	c0.52-0.35,0.78-0.95,0.78-1.81c0-0.87-0.26-1.48-0.78-1.82C666.05,5.93,665.11,5.76,663.74,5.76z"/>
<path class="st1" d="M673.17,22.76l9.39-21.67h10.65l8.76,21.67h-9.1l-0.72-2.12h-9.21l-0.78,2.12H673.17z M684.92,15.29h5.38
	l-2.61-7.62L684.92,15.29z"/>
<path class="st1" d="M719.53,10.2c-0.14-1.34-0.61-2.36-1.42-3.06s-1.92-1.05-3.33-1.05c-1.8,0-3.17,0.5-4.12,1.51
	c-0.95,1.01-1.43,2.46-1.43,4.35c0,1.88,0.48,3.33,1.43,4.32c0.95,1,2.33,1.49,4.12,1.49c1.3,0,2.35-0.29,3.14-0.89
	c0.8-0.59,1.32-1.47,1.58-2.63h9.68c-0.44,3-1.88,5.26-4.31,6.8s-5.8,2.3-10.08,2.3c-4.81,0-8.45-0.96-10.9-2.88
	c-2.45-1.92-3.68-4.76-3.68-8.52c0-3.77,1.23-6.61,3.68-8.53c2.45-1.92,6.08-2.88,10.9-2.88c4.49,0,7.97,0.83,10.43,2.5
	s3.76,4.05,3.91,7.17H719.53z"/>
<path class="st1" d="M730.8,22.76V1.1h22.95v5.32h-14.56v2.58h11.79v5.35h-11.79v2.84h15.28v5.58H730.8z"/>
<path class="st1" d="M754.32,16.17l10.17-0.01c0.08,0.59,0.44,1.04,1.1,1.35c0.65,0.32,1.55,0.48,2.68,0.48s1.98-0.13,2.54-0.39
	c0.56-0.26,0.84-0.65,0.84-1.16c0-0.46-0.24-0.83-0.73-1.11c-0.49-0.28-1.24-0.48-2.26-0.61l-6.27-0.78
	c-2.6-0.31-4.55-1.01-5.87-2.09c-1.31-1.08-1.97-2.53-1.97-4.35c0-2.42,0.99-4.19,2.98-5.3s5.15-1.67,9.5-1.67
	c4.51,0,7.87,0.56,10.06,1.67s3.38,2.85,3.56,5.2h-9.76c-0.11-0.68-0.52-1.2-1.23-1.55c-0.71-0.35-1.71-0.52-3-0.52
	c-0.94,0-1.67,0.13-2.21,0.39s-0.81,0.61-0.81,1.05c0,0.41,0.21,0.72,0.62,0.94s1.28,0.42,2.59,0.6l7.65,1.08
	c2.39,0.34,4.18,1.04,5.36,2.09c1.18,1.05,1.77,2.46,1.77,4.24c0,2.66-1.18,4.6-3.54,5.84s-6.09,1.86-11.18,1.86
	c-4.04,0-7.15-0.62-9.31-1.88C755.44,20.3,754.35,18.51,754.32,16.17z"/>
<path class="st1" d="M784.4,19.76v-6.93h7.87v4.58c0,1.26-0.14,2.22-0.41,2.88c-0.27,0.66-0.74,1.24-1.39,1.75
	c-0.62,0.49-1.36,0.93-2.2,1.33s-1.8,0.75-2.87,1.05l-0.66-2.75c0.67-0.22,1.16-0.49,1.46-0.78s0.46-0.68,0.47-1.13H784.4z"/>
<path class="st1" d="M809.22,22.76V1.1h22.95v5.32h-14.56v2.58h11.79v5.35h-11.79v2.84h15.28v5.58H809.22z"/>
<path class="st1" d="M834.06,22.76V1.1h9.93l8.36,12.48V1.1h8.13v21.67h-9.42l-9.1-12.69v12.69H834.06z"/>
<path class="st1" d="M869.6,22.76L860.04,1.1h9.48l4.58,14.5l4.83-14.5h9.39l-9.96,21.67H869.6z"/>
<path class="st1" d="M887.88,22.76V1.1h8.39v21.67H887.88z"/>
<path class="st1" d="M915.98,1.1c1.88,0,3.39,0.09,4.53,0.27c1.13,0.18,2.02,0.46,2.65,0.84c0.81,0.48,1.43,1.12,1.85,1.93
	c0.42,0.8,0.64,1.74,0.64,2.79c0,1.28-0.32,2.41-0.95,3.38c-0.63,0.97-1.51,1.67-2.62,2.1c0.96,0.4,1.63,0.9,2.01,1.49
	s0.61,1.63,0.68,3.13c0.01,0.17,0.02,0.4,0.03,0.69c0.14,2.83,0.52,4.4,1.14,4.72v0.34h-9.33c-0.28-0.46-0.44-1.35-0.47-2.67
	c-0.02-0.77-0.05-1.37-0.1-1.79c-0.09-0.79-0.35-1.35-0.8-1.67s-1.19-0.48-2.23-0.48H908v6.61h-8.51V1.1H915.98z M908,10.46h4.89
	c1.28,0,2.18-0.15,2.7-0.45s0.78-0.81,0.78-1.52c0-0.7-0.25-1.19-0.74-1.47c-0.49-0.28-1.48-0.42-2.95-0.42H908V10.46z"/>
<path class="st1" d="M926.47,11.94c0-3.77,1.23-6.61,3.68-8.53c2.45-1.92,6.08-2.88,10.9-2.88s8.45,0.96,10.9,2.88
	c2.45,1.92,3.68,4.76,3.68,8.53c0,3.76-1.23,6.6-3.68,8.52c-2.45,1.92-6.08,2.88-10.9,2.88s-8.45-0.96-10.9-2.88
	C927.69,18.54,926.47,15.7,926.47,11.94z M935.49,11.94c0,1.88,0.48,3.33,1.43,4.32c0.95,1,2.33,1.49,4.12,1.49s3.17-0.5,4.12-1.49
	c0.95-1,1.43-2.44,1.43-4.32c0-1.89-0.48-3.34-1.43-4.35c-0.95-1.01-2.33-1.51-4.12-1.51s-3.17,0.5-4.12,1.51
	C935.97,8.59,935.49,10.04,935.49,11.94z"/>
<path class="st1" d="M957.57,22.76V1.1h9.93l8.36,12.48V1.1H984v21.67h-9.42l-9.1-12.69v12.69H957.57z"/>
<path class="st1" d="M987.24,22.76V1.1h12.45l3.66,13.2l3.96-13.2h12.28v21.67h-7.78V5.85l-5.16,16.92h-6.55l-5.1-16.92v16.92
	H987.24z"/>
<path class="st1" d="M1022.82,22.76V1.1h22.95v5.32h-14.56v2.58h11.79v5.35h-11.79v2.84h15.28v5.58H1022.82z"/>
<path class="st1" d="M1047.66,22.76V1.1h9.93l8.36,12.48V1.1h8.13v21.67h-9.42l-9.1-12.69v12.69H1047.66z"/>
<path class="st1" d="M1082.85,22.76V6.59h-7.84V1.1h24.1v5.49h-7.87v16.17H1082.85z"/>
<path class="st1" d="M1098.7,16.17l10.17-0.01c0.08,0.59,0.44,1.04,1.1,1.35c0.65,0.32,1.55,0.48,2.68,0.48s1.98-0.13,2.54-0.39
	c0.56-0.26,0.84-0.65,0.84-1.16c0-0.46-0.24-0.83-0.73-1.11c-0.49-0.28-1.24-0.48-2.26-0.61l-6.27-0.78
	c-2.6-0.31-4.55-1.01-5.87-2.09c-1.31-1.08-1.97-2.53-1.97-4.35c0-2.42,0.99-4.19,2.98-5.3s5.15-1.67,9.5-1.67
	c4.51,0,7.87,0.56,10.06,1.67s3.38,2.85,3.56,5.2h-9.76c-0.11-0.68-0.52-1.2-1.23-1.55c-0.71-0.35-1.71-0.52-3-0.52
	c-0.94,0-1.67,0.13-2.21,0.39s-0.81,0.61-0.81,1.05c0,0.41,0.21,0.72,0.62,0.94s1.28,0.42,2.59,0.6l7.65,1.08
	c2.39,0.34,4.18,1.04,5.36,2.09c1.18,1.05,1.77,2.46,1.77,4.24c0,2.66-1.18,4.6-3.54,5.84s-6.09,1.86-11.18,1.86
	c-4.04,0-7.15-0.62-9.31-1.88C1099.82,20.3,1098.73,18.51,1098.7,16.17z"/>
<path class="st1" d="M1128.78,19.76v-6.93h7.87v4.58c0,1.26-0.14,2.22-0.41,2.88c-0.27,0.66-0.74,1.24-1.39,1.75
	c-0.62,0.49-1.36,0.93-2.2,1.33s-1.8,0.75-2.87,1.05l-0.66-2.75c0.67-0.22,1.16-0.49,1.46-0.78s0.46-0.68,0.47-1.13H1128.78z"/>
<path class="st1" d="M1150.36,22.76l9.39-21.67h10.65l8.76,21.67h-9.1l-0.72-2.12h-9.21l-0.78,2.12H1150.36z M1162.11,15.29h5.38
	l-2.61-7.62L1162.11,15.29z"/>
<path class="st1" d="M1179.15,22.76V1.1h9.93l8.36,12.48V1.1h8.13v21.67h-9.42l-9.1-12.69v12.69H1179.15z"/>
<path class="st1" d="M1208.82,1.07h13.89c4.49,0,7.92,0.93,10.27,2.78s3.53,4.55,3.53,8.09c0,3.54-1.17,6.22-3.52,8.06
	c-2.34,1.84-5.77,2.76-10.28,2.76h-13.89V1.07z M1217.22,6.45v10.56h4.17c2.18,0,3.74-0.41,4.68-1.24s1.41-2.18,1.41-4.05
	c0-1.87-0.48-3.21-1.43-4.04c-0.95-0.83-2.51-1.24-4.67-1.24H1217.22z"/>
<path class="st1" d="M1251.39,22.76V1.1h16.2c3.07,0,5.43,0.61,7.1,1.84c1.66,1.23,2.5,2.96,2.5,5.19c0,2.23-0.83,3.95-2.5,5.18
	c-1.67,1.23-4.03,1.84-7.1,1.84h-7.81v7.62H1251.39z M1264.39,5.76h-4.6v4.67h4.6c1.37,0,2.31-0.17,2.83-0.52
	c0.52-0.35,0.78-0.95,0.78-1.81c0-0.87-0.26-1.48-0.78-1.82C1266.7,5.93,1265.75,5.76,1264.39,5.76z"/>
<path class="st1" d="M1295.04,1.1c1.88,0,3.39,0.09,4.53,0.27c1.13,0.18,2.02,0.46,2.65,0.84c0.81,0.48,1.43,1.12,1.85,1.93
	c0.42,0.8,0.64,1.74,0.64,2.79c0,1.28-0.32,2.41-0.95,3.38c-0.63,0.97-1.51,1.67-2.62,2.1c0.96,0.4,1.63,0.9,2.01,1.49
	s0.61,1.63,0.68,3.13c0.01,0.17,0.02,0.4,0.03,0.69c0.14,2.83,0.52,4.4,1.14,4.72v0.34h-9.33c-0.28-0.46-0.44-1.35-0.47-2.67
	c-0.02-0.77-0.05-1.37-0.1-1.79c-0.09-0.79-0.35-1.35-0.8-1.67s-1.19-0.48-2.23-0.48h-5.01v6.61h-8.51V1.1H1295.04z M1287.06,10.46
	h4.89c1.28,0,2.18-0.15,2.7-0.45s0.78-0.81,0.78-1.52c0-0.7-0.25-1.19-0.74-1.47c-0.49-0.28-1.48-0.42-2.95-0.42h-4.69V10.46z"/>
<path class="st1" d="M1305.52,11.94c0-3.77,1.23-6.61,3.68-8.53c2.45-1.92,6.08-2.88,10.9-2.88s8.45,0.96,10.9,2.88
	c2.45,1.92,3.68,4.76,3.68,8.53c0,3.76-1.23,6.6-3.68,8.52c-2.45,1.92-6.08,2.88-10.9,2.88s-8.45-0.96-10.9-2.88
	C1306.75,18.54,1305.52,15.7,1305.52,11.94z M1314.55,11.94c0,1.88,0.48,3.33,1.43,4.32c0.95,1,2.33,1.49,4.12,1.49
	s3.17-0.5,4.12-1.49c0.95-1,1.43-2.44,1.43-4.32c0-1.89-0.48-3.34-1.43-4.35c-0.95-1.01-2.33-1.51-4.12-1.51s-3.17,0.5-4.12,1.51
	C1315.02,8.59,1314.55,10.04,1314.55,11.94z"/>
<path class="st1" d="M1336.66,1.07h13.89c4.49,0,7.92,0.93,10.27,2.78s3.53,4.55,3.53,8.09c0,3.54-1.17,6.22-3.52,8.06
	c-2.34,1.84-5.77,2.76-10.28,2.76h-13.89V1.07z M1345.05,6.45v10.56h4.17c2.18,0,3.74-0.41,4.68-1.24s1.41-2.18,1.41-4.05
	c0-1.87-0.48-3.21-1.43-4.04c-0.95-0.83-2.51-1.24-4.67-1.24H1345.05z"/>
<path class="st1" d="M1374.78,1.1v10.59c0,2.18,0.33,3.69,0.99,4.53c0.66,0.85,1.8,1.27,3.42,1.27s2.76-0.42,3.41-1.26
	c0.65-0.84,0.97-2.35,0.97-4.54V1.1h8.41v11.38c0,3.76-1.02,6.51-3.07,8.26s-5.29,2.62-9.72,2.62c-4.4,0-7.64-0.88-9.71-2.64
	c-2.06-1.76-3.1-4.51-3.1-8.25V1.1H1374.78z"/>
<path class="st1" d="M1413.29,10.2c-0.14-1.34-0.61-2.36-1.42-3.06s-1.92-1.05-3.33-1.05c-1.8,0-3.17,0.5-4.12,1.51
	c-0.95,1.01-1.43,2.46-1.43,4.35c0,1.88,0.48,3.33,1.43,4.32c0.95,1,2.33,1.49,4.12,1.49c1.3,0,2.35-0.29,3.14-0.89
	c0.8-0.59,1.32-1.47,1.58-2.63h9.68c-0.44,3-1.88,5.26-4.31,6.8s-5.8,2.3-10.08,2.3c-4.81,0-8.45-0.96-10.9-2.88
	c-2.45-1.92-3.68-4.76-3.68-8.52c0-3.77,1.23-6.61,3.68-8.53c2.45-1.92,6.08-2.88,10.9-2.88c4.49,0,7.97,0.83,10.43,2.5
	s3.76,4.05,3.91,7.17H1413.29z"/>
<path class="st1" d="M1430.08,22.76V6.59h-7.84V1.1h24.1v5.49h-7.87v16.17H1430.08z"/>
<path class="st1" d="M1445.93,16.17l10.17-0.01c0.08,0.59,0.44,1.04,1.1,1.35c0.65,0.32,1.55,0.48,2.68,0.48s1.98-0.13,2.54-0.39
	c0.56-0.26,0.84-0.65,0.84-1.16c0-0.46-0.24-0.83-0.73-1.11c-0.49-0.28-1.24-0.48-2.26-0.61l-6.27-0.78
	c-2.6-0.31-4.55-1.01-5.87-2.09c-1.31-1.08-1.97-2.53-1.97-4.35c0-2.42,0.99-4.19,2.98-5.3s5.15-1.67,9.5-1.67
	c4.51,0,7.87,0.56,10.06,1.67s3.38,2.85,3.56,5.2h-9.76c-0.11-0.68-0.52-1.2-1.23-1.55c-0.71-0.35-1.71-0.52-3-0.52
	c-0.94,0-1.67,0.13-2.21,0.39s-0.81,0.61-0.81,1.05c0,0.41,0.21,0.72,0.62,0.94s1.28,0.42,2.59,0.6l7.65,1.08
	c2.39,0.34,4.18,1.04,5.36,2.09c1.18,1.05,1.77,2.46,1.77,4.24c0,2.66-1.18,4.6-3.54,5.84s-6.09,1.86-11.18,1.86
	c-4.04,0-7.15-0.62-9.31-1.88C1447.05,20.3,1445.96,18.51,1445.93,16.17z"/>
<g>
	<path class="st1" d="M342.69,51.95V35.78h-7.84v-5.49h24.1v5.49h-7.87v16.17H342.69z"/>
	<path class="st1" d="M359.88,51.95V30.29h8.39v7.5h9.58v-7.5h8.39v21.67h-8.39v-8.76h-9.58v8.76H359.88z"/>
	<path class="st1" d="M405.99,30.29c1.88,0,3.39,0.09,4.53,0.27c1.13,0.18,2.02,0.46,2.65,0.84c0.81,0.48,1.43,1.12,1.85,1.93
		c0.42,0.8,0.64,1.74,0.64,2.79c0,1.28-0.32,2.41-0.95,3.38c-0.63,0.97-1.51,1.67-2.62,2.1c0.96,0.4,1.63,0.9,2.01,1.49
		s0.61,1.63,0.68,3.13c0.01,0.17,0.02,0.4,0.03,0.69c0.14,2.83,0.52,4.4,1.14,4.72v0.34h-9.33c-0.28-0.46-0.44-1.35-0.47-2.67
		c-0.02-0.77-0.05-1.37-0.1-1.79c-0.09-0.79-0.35-1.35-0.8-1.67s-1.19-0.48-2.23-0.48h-5.01v6.61h-8.51V30.29H405.99z M398.01,39.65
		h4.89c1.28,0,2.18-0.15,2.7-0.45s0.78-0.81,0.78-1.52c0-0.7-0.25-1.19-0.74-1.47c-0.49-0.28-1.48-0.42-2.95-0.42h-4.69V39.65z"/>
	<path class="st1" d="M416.47,41.13c0-3.77,1.23-6.61,3.68-8.53c2.45-1.92,6.08-2.88,10.9-2.88s8.45,0.96,10.9,2.88
		c2.45,1.92,3.68,4.76,3.68,8.53c0,3.76-1.23,6.6-3.68,8.52c-2.45,1.92-6.08,2.88-10.9,2.88s-8.45-0.96-10.9-2.88
		C417.7,47.73,416.47,44.89,416.47,41.13z M425.5,41.13c0,1.88,0.48,3.33,1.43,4.32s2.33,1.49,4.12,1.49s3.17-0.5,4.12-1.49
		c0.95-1,1.43-2.44,1.43-4.32c0-1.89-0.48-3.34-1.43-4.35c-0.95-1.01-2.33-1.51-4.12-1.51s-3.17,0.5-4.12,1.51
		S425.5,39.23,425.5,41.13z"/>
	<path class="st1" d="M456,30.29v10.59c0,2.18,0.33,3.69,0.99,4.53c0.66,0.85,1.8,1.27,3.42,1.27s2.76-0.42,3.41-1.26
		c0.65-0.84,0.97-2.35,0.97-4.54V30.29h8.41v11.38c0,3.76-1.02,6.51-3.07,8.26s-5.29,2.62-9.72,2.62c-4.4,0-7.64-0.88-9.71-2.64
		c-2.06-1.76-3.1-4.51-3.1-8.25V30.29H456z"/>
	<path class="st1" d="M499.24,50.03c-0.98,0.86-2.23,1.49-3.76,1.89s-3.43,0.6-5.72,0.6c-4.81,0-8.45-0.96-10.9-2.88
		c-2.45-1.92-3.68-4.76-3.68-8.52c0-3.77,1.23-6.61,3.68-8.53c2.45-1.92,6.08-2.88,10.9-2.88c4.05,0,7.3,0.69,9.74,2.07
		s3.82,3.29,4.15,5.74h-9.2c-0.45-0.88-1.04-1.53-1.78-1.96s-1.63-0.64-2.67-0.64c-1.75,0-3.15,0.56-4.2,1.68s-1.58,2.63-1.58,4.53
		c0,1.91,0.52,3.4,1.56,4.46c1.04,1.06,2.49,1.59,4.36,1.59c1.4,0,2.56-0.25,3.49-0.76s1.49-1.2,1.7-2.08h-3.49v-4.69h12.1v12.3
		h-3.78L499.24,50.03z"/>
	<path class="st1" d="M506.47,51.95V30.29h8.39v7.5h9.58v-7.5h8.39v21.67h-8.39v-8.76h-9.58v8.76H506.47z"/>
	<path class="st1" d="M547.58,45.36l10.17-0.01c0.08,0.59,0.44,1.04,1.1,1.35c0.65,0.32,1.55,0.48,2.68,0.48s1.98-0.13,2.54-0.39
		c0.56-0.26,0.84-0.65,0.84-1.16c0-0.46-0.24-0.83-0.73-1.11c-0.49-0.28-1.24-0.48-2.26-0.61l-6.27-0.78
		c-2.6-0.31-4.55-1.01-5.87-2.09c-1.31-1.08-1.97-2.53-1.97-4.35c0-2.42,0.99-4.19,2.98-5.3s5.15-1.67,9.5-1.67
		c4.51,0,7.87,0.56,10.06,1.67s3.38,2.85,3.56,5.2h-9.76c-0.11-0.68-0.52-1.2-1.23-1.55c-0.71-0.35-1.71-0.52-3-0.52
		c-0.94,0-1.67,0.13-2.21,0.39s-0.81,0.61-0.81,1.05c0,0.41,0.21,0.72,0.62,0.94s1.28,0.42,2.59,0.6l7.65,1.08
		c2.39,0.34,4.18,1.04,5.36,2.09c1.18,1.05,1.77,2.46,1.77,4.24c0,2.66-1.18,4.6-3.54,5.84s-6.09,1.86-11.18,1.86
		c-4.04,0-7.15-0.62-9.31-1.88C548.7,49.49,547.61,47.69,547.58,45.36z"/>
	<path class="st1" d="M582.32,51.95V35.78h-7.84v-5.49h24.1v5.49h-7.87v16.17H582.32z"/>
	<path class="st1" d="M599.51,51.95V30.29h8.39v21.67H599.51z"/>
	<path class="st1" d="M611.12,51.95V30.29h8.39V46h13.23v5.95H611.12z"/>
	<path class="st1" d="M633.89,51.95V30.29h8.39V46h13.23v5.95H633.89z"/>
	<path class="st1" d="M669.51,51.95V30.29h8.39v21.67H669.51z"/>
	<path class="st1" d="M681.12,51.95V30.29h12.45l3.66,13.2l3.96-13.2h12.28v21.67h-7.78V35.03l-5.16,16.92h-6.55l-5.1-16.92v16.92
		H681.12z"/>
	<path class="st1" d="M713.45,51.95l9.39-21.67h10.65l8.76,21.67h-9.1l-0.72-2.12h-9.21l-0.78,2.12H713.45z M725.2,44.48h5.38
		l-2.61-7.62L725.2,44.48z"/>
	<path class="st1" d="M764.54,50.03c-0.98,0.86-2.23,1.49-3.76,1.89s-3.43,0.6-5.72,0.6c-4.81,0-8.45-0.96-10.9-2.88
		c-2.45-1.92-3.68-4.76-3.68-8.52c0-3.77,1.23-6.61,3.68-8.53c2.45-1.92,6.08-2.88,10.9-2.88c4.05,0,7.3,0.69,9.74,2.07
		s3.82,3.29,4.15,5.74h-9.2c-0.45-0.88-1.04-1.53-1.78-1.96s-1.63-0.64-2.67-0.64c-1.75,0-3.15,0.56-4.2,1.68s-1.58,2.63-1.58,4.53
		c0,1.91,0.52,3.4,1.56,4.46c1.04,1.06,2.49,1.59,4.36,1.59c1.4,0,2.56-0.25,3.49-0.76s1.49-1.2,1.7-2.08h-3.49v-4.69h12.1v12.3
		h-3.78L764.54,50.03z"/>
	<path class="st1" d="M771.77,51.95V30.29h22.95v5.32h-14.56v2.58h11.79v5.35h-11.79v2.84h15.28v5.58H771.77z"/>
	<path class="st1" d="M813.13,30.29c1.88,0,3.39,0.09,4.53,0.27c1.13,0.18,2.02,0.46,2.65,0.84c0.81,0.48,1.43,1.12,1.85,1.93
		c0.42,0.8,0.64,1.74,0.64,2.79c0,1.28-0.32,2.41-0.95,3.38c-0.63,0.97-1.51,1.67-2.62,2.1c0.96,0.4,1.63,0.9,2.01,1.49
		s0.61,1.63,0.68,3.13c0.01,0.17,0.02,0.4,0.03,0.69c0.14,2.83,0.52,4.4,1.14,4.72v0.34h-9.33c-0.28-0.46-0.44-1.35-0.47-2.67
		c-0.02-0.77-0.05-1.37-0.1-1.79c-0.09-0.79-0.35-1.35-0.8-1.67s-1.19-0.48-2.23-0.48h-5.01v6.61h-8.51V30.29H813.13z M805.15,39.65
		h4.89c1.28,0,2.18-0.15,2.7-0.45s0.78-0.81,0.78-1.52c0-0.7-0.25-1.19-0.74-1.47c-0.49-0.28-1.48-0.42-2.95-0.42h-4.69V39.65z"/>
	<path class="st1" d="M830.72,51.95v-6.12l-9.51-15.54h9.87l3.9,8.92l4.15-8.92h9.65l-9.65,15.54v6.12H830.72z"/>
	<path class="st1" d="M857.97,51.95l9.39-21.67h10.65l8.76,21.67h-9.1l-0.72-2.12h-9.21l-0.78,2.12H857.97z M869.72,44.48h5.38
		l-2.61-7.62L869.72,44.48z"/>
	<path class="st1" d="M886.76,51.95V30.29h9.93l8.36,12.48V30.29h8.13v21.67h-9.42l-9.1-12.69v12.69H886.76z"/>
	<path class="st1" d="M916.43,30.26h13.89c4.49,0,7.92,0.93,10.27,2.78s3.53,4.55,3.53,8.09c0,3.54-1.17,6.22-3.52,8.06
		c-2.34,1.84-5.77,2.76-10.28,2.76h-13.89V30.26z M924.83,35.63v10.56H929c2.18,0,3.74-0.41,4.68-1.24s1.41-2.18,1.41-4.05
		c0-1.87-0.48-3.21-1.43-4.04c-0.95-0.83-2.51-1.24-4.67-1.24H924.83z"/>
	<path class="st1" d="M955.77,51.95l9.39-21.67h10.65l8.76,21.67h-9.1l-0.72-2.12h-9.21l-0.78,2.12H955.77z M967.52,44.48h5.38
		l-2.61-7.62L967.52,44.48z"/>
	<path class="st1" d="M984.56,51.95V30.29h9.93l8.36,12.48V30.29h8.13v21.67h-9.42l-9.1-12.69v12.69H984.56z"/>
	<path class="st1" d="M1014.23,51.95V30.29h8.39v21.67H1014.23z"/>
	<path class="st1" d="M1025.84,51.95V30.29h12.45l3.66,13.2l3.96-13.2h12.28v21.67h-7.78V35.03l-5.16,16.92h-6.55l-5.1-16.92v16.92
		H1025.84z"/>
	<path class="st1" d="M1058.18,51.95l9.39-21.67h10.65l8.76,21.67h-9.1l-0.72-2.12h-9.21l-0.78,2.12H1058.18z M1069.93,44.48h5.38
		l-2.61-7.62L1069.93,44.48z"/>
	<path class="st1" d="M1091.31,51.95V35.78h-7.84v-5.49h24.1v5.49h-7.87v16.17H1091.31z"/>
	<path class="st1" d="M1108.5,51.95V30.29h8.39v21.67H1108.5z"/>
	<path class="st1" d="M1118.85,41.13c0-3.77,1.23-6.61,3.68-8.53c2.45-1.92,6.08-2.88,10.9-2.88s8.45,0.96,10.9,2.88
		c2.45,1.92,3.68,4.76,3.68,8.53c0,3.76-1.23,6.6-3.68,8.52c-2.45,1.92-6.08,2.88-10.9,2.88s-8.45-0.96-10.9-2.88
		C1120.08,47.73,1118.85,44.89,1118.85,41.13z M1127.88,41.13c0,1.88,0.48,3.33,1.43,4.32c0.95,1,2.33,1.49,4.12,1.49
		s3.17-0.5,4.12-1.49c0.95-1,1.43-2.44,1.43-4.32c0-1.89-0.48-3.34-1.43-4.35c-0.95-1.01-2.33-1.51-4.12-1.51s-3.17,0.5-4.12,1.51
		C1128.35,37.78,1127.88,39.23,1127.88,41.13z"/>
	<path class="st1" d="M1149.96,51.95V30.29h9.93l8.36,12.48V30.29h8.13v21.67h-9.42l-9.1-12.69v12.69H1149.96z"/>
</g>
</svg>
