<?xml version="1.0" encoding="utf-8"?>
<!-- Generator: Adobe Illustrator 28.3.0, SVG Export Plug-In . SVG Version: 6.00 Build 0)  -->
<svg version="1.1" id="Layer_1" xmlns="http://www.w3.org/2000/svg" xmlns:xlink="http://www.w3.org/1999/xlink" x="0px" y="0px"
	 viewBox="0 0 964 33" style="enable-background:new 0 0 964 33;" xml:space="preserve">
<style type="text/css">
	.st0{fill:#FFFFFF;}
</style>
<g>
	<path class="st0" d="M9.28,31.84L22.51,1.33h15l12.34,30.52H37.04l-1.01-2.99H23.05l-1.09,2.99H9.28z M25.83,21.32h7.57
		l-3.67-10.73L25.83,21.32z"/>
	<path class="st0" d="M75.38,1.33c2.65,0,4.78,0.13,6.38,0.38c1.6,0.25,2.84,0.65,3.73,1.19c1.14,0.67,2.01,1.58,2.61,2.71
		S89,8.05,89,9.54c0,1.8-0.45,3.39-1.34,4.76s-2.12,2.36-3.69,2.96c1.35,0.56,2.29,1.26,2.84,2.09c0.54,0.83,0.86,2.3,0.96,4.41
		c0.01,0.23,0.03,0.56,0.04,0.97c0.19,3.99,0.73,6.2,1.61,6.64v0.47H76.27c-0.4-0.65-0.62-1.9-0.66-3.76
		c-0.03-1.09-0.08-1.93-0.14-2.52c-0.12-1.11-0.5-1.9-1.12-2.35s-1.67-0.68-3.15-0.68h-7.06v9.31H52.15V1.33H75.38z M64.14,14.51
		h6.89c1.8,0,3.07-0.21,3.81-0.64c0.74-0.43,1.1-1.14,1.1-2.15c0-0.99-0.35-1.68-1.04-2.07s-2.08-0.59-4.16-0.59h-6.6V14.51z"/>
	<path class="st0" d="M118.99,14.14c-0.19-1.88-0.86-3.32-2-4.31c-1.14-0.99-2.7-1.49-4.68-1.49c-2.53,0-4.47,0.71-5.81,2.13
		c-1.34,1.42-2.01,3.46-2.01,6.13c0,2.65,0.67,4.68,2.01,6.09c1.34,1.4,3.28,2.1,5.81,2.1c1.83,0,3.3-0.42,4.43-1.25
		c1.12-0.83,1.86-2.07,2.22-3.7h13.64c-0.62,4.22-2.65,7.42-6.08,9.58c-3.43,2.16-8.17,3.24-14.21,3.24
		c-6.78,0-11.9-1.35-15.35-4.05c-3.45-2.7-5.18-6.7-5.18-12c0-5.31,1.73-9.32,5.18-12.02c3.45-2.7,8.57-4.05,15.35-4.05
		c6.33,0,11.23,1.17,14.69,3.52c3.47,2.35,5.3,5.71,5.51,10.1H118.99z"/>
	<path class="st0" d="M136.67,31.84V1.33h11.82v10.56h13.5V1.33h11.82v30.52h-11.82V19.5h-13.5v12.34H136.67z"/>
	<path class="st0" d="M179.88,31.84V1.33h11.82v30.52H179.88z"/>
	<path class="st0" d="M205.63,31.84V9.06h-11.04V1.33h33.94v7.74h-11.08v22.78H205.63z"/>
	<path class="st0" d="M231.44,31.84V1.33h32.33v7.49h-20.51v3.63h16.61v7.53h-16.61v4h21.52v7.86H231.44z"/>
	<path class="st0" d="M293.72,14.14c-0.19-1.88-0.86-3.32-2-4.31c-1.14-0.99-2.7-1.49-4.68-1.49c-2.53,0-4.47,0.71-5.81,2.13
		c-1.34,1.42-2.01,3.46-2.01,6.13c0,2.65,0.67,4.68,2.01,6.09c1.34,1.4,3.28,2.1,5.81,2.1c1.83,0,3.3-0.42,4.43-1.25
		c1.12-0.83,1.86-2.07,2.22-3.7h13.64c-0.62,4.22-2.65,7.42-6.08,9.58c-3.43,2.16-8.17,3.24-14.21,3.24
		c-6.78,0-11.9-1.35-15.35-4.05c-3.45-2.7-5.18-6.7-5.18-12c0-5.31,1.73-9.32,5.18-12.02c3.45-2.7,8.57-4.05,15.35-4.05
		c6.33,0,11.23,1.17,14.69,3.52c3.47,2.35,5.3,5.71,5.51,10.1H293.72z"/>
	<path class="st0" d="M319.71,31.84V9.06h-11.04V1.33h33.94v7.74h-11.08v22.78H319.71z"/>
	<path class="st0" d="M357.35,1.33v14.92c0,3.07,0.46,5.2,1.39,6.39c0.93,1.19,2.53,1.78,4.82,1.78c2.28,0,3.88-0.59,4.8-1.77
		c0.92-1.18,1.37-3.31,1.37-6.4V1.33h11.84v16.03c0,5.3-1.44,9.18-4.32,11.64c-2.88,2.46-7.45,3.69-13.69,3.69
		c-6.2,0-10.76-1.24-13.67-3.71c-2.91-2.48-4.36-6.35-4.36-11.62V1.33H357.35z"/>
	<path class="st0" d="M410.7,1.33c2.65,0,4.78,0.13,6.38,0.38c1.6,0.25,2.84,0.65,3.73,1.19c1.14,0.67,2.01,1.58,2.61,2.71
		s0.9,2.45,0.9,3.93c0,1.8-0.45,3.39-1.34,4.76s-2.12,2.36-3.69,2.96c1.35,0.56,2.29,1.26,2.84,2.09c0.54,0.83,0.86,2.3,0.96,4.41
		c0.01,0.23,0.03,0.56,0.04,0.97c0.19,3.99,0.73,6.2,1.61,6.64v0.47h-13.14c-0.4-0.65-0.62-1.9-0.66-3.76
		c-0.03-1.09-0.08-1.93-0.14-2.52c-0.12-1.11-0.5-1.9-1.12-2.35s-1.67-0.68-3.15-0.68h-7.06v9.31h-11.99V1.33H410.7z M399.45,14.51
		h6.89c1.8,0,3.07-0.21,3.81-0.64c0.74-0.43,1.1-1.14,1.1-2.15c0-0.99-0.35-1.68-1.04-2.07s-2.08-0.59-4.16-0.59h-6.6V14.51z"/>
	<path class="st0" d="M426.02,31.84l13.23-30.52h15l12.34,30.52h-12.81l-1.01-2.99h-12.98l-1.09,2.99H426.02z M442.57,21.32h7.57
		l-3.67-10.73L442.57,21.32z"/>
	<path class="st0" d="M468.88,31.84V1.33h11.82v22.14h18.63v8.38H468.88z"/>
	<path class="st0" d="M531.55,31.84L518.08,1.33h13.35l6.46,20.43l6.81-20.43h13.23l-14.03,30.52H531.55z"/>
	<path class="st0" d="M559.89,31.84V1.33h11.82v30.52H559.89z"/>
	<path class="st0" d="M576.11,22.56l14.32-0.02c0.11,0.83,0.63,1.46,1.55,1.91c0.92,0.45,2.18,0.67,3.78,0.67s2.79-0.18,3.58-0.55
		s1.19-0.91,1.19-1.64c0-0.65-0.34-1.17-1.03-1.56c-0.69-0.39-1.75-0.68-3.18-0.86l-8.83-1.09c-3.66-0.44-6.41-1.42-8.26-2.95
		c-1.85-1.53-2.78-3.57-2.78-6.13c0-3.41,1.4-5.9,4.2-7.47c2.8-1.57,7.26-2.35,13.38-2.35c6.36,0,11.08,0.78,14.18,2.35
		c3.1,1.57,4.77,4.01,5.01,7.32h-13.74c-0.15-0.96-0.73-1.69-1.73-2.18c-1-0.49-2.41-0.73-4.23-0.73c-1.32,0-2.36,0.18-3.12,0.55
		c-0.76,0.36-1.13,0.86-1.13,1.48c0,0.58,0.29,1.02,0.88,1.32c0.58,0.3,1.8,0.58,3.64,0.85L604.54,13c3.37,0.48,5.89,1.46,7.55,2.94
		c1.66,1.48,2.5,3.47,2.5,5.97c0,3.74-1.66,6.49-4.99,8.23c-3.33,1.75-8.58,2.62-15.74,2.62c-5.69,0-10.07-0.88-13.11-2.64
		C577.69,28.37,576.15,25.85,576.11,22.56z"/>
	<path class="st0" d="M630.18,1.33v14.92c0,3.07,0.46,5.2,1.39,6.39c0.93,1.19,2.54,1.78,4.82,1.78s3.88-0.59,4.8-1.77
		c0.91-1.18,1.37-3.31,1.37-6.4V1.33h11.84v16.03c0,5.3-1.44,9.18-4.32,11.64c-2.88,2.46-7.45,3.69-13.69,3.69
		c-6.2,0-10.76-1.24-13.67-3.71s-4.36-6.35-4.36-11.62V1.33H630.18z"/>
	<path class="st0" d="M654.76,31.84l13.23-30.52h15l12.34,30.52h-12.81l-1.01-2.99h-12.98l-1.09,2.99H654.76z M671.31,21.32h7.57
		l-3.67-10.73L671.31,21.32z"/>
	<path class="st0" d="M697.63,31.84V1.33h11.82v22.14h18.63v8.38H697.63z"/>
	<path class="st0" d="M731.12,31.84V1.33h11.82v30.52H731.12z"/>
	<path class="st0" d="M747.17,31.84v-6.77l17.89-16.1h-16.84V1.33h32.89v6.93l-17.79,15.56h17.19v8.03H747.17z"/>
	<path class="st0" d="M781.98,31.84l13.23-30.52h15l12.34,30.52h-12.81l-1.01-2.99h-12.98l-1.09,2.99H781.98z M798.53,21.32h7.57
		l-3.67-10.73L798.53,21.32z"/>
	<path class="st0" d="M829.67,31.84V9.06h-11.04V1.33h33.94v7.74h-11.08v22.78H829.67z"/>
	<path class="st0" d="M855.47,31.84V1.33h11.82v30.52H855.47z"/>
	<path class="st0" d="M871.75,16.6c0-5.31,1.73-9.32,5.18-12.02s8.57-4.05,15.35-4.05c6.78,0,11.9,1.35,15.35,4.05
		c3.45,2.7,5.18,6.71,5.18,12.02c0,5.3-1.73,9.3-5.18,12c-3.45,2.7-8.57,4.05-15.35,4.05c-6.78,0-11.9-1.35-15.35-4.05
		S871.75,21.89,871.75,16.6z M884.46,16.6c0,2.65,0.67,4.68,2.01,6.09c1.34,1.4,3.28,2.1,5.81,2.1c2.53,0,4.47-0.7,5.81-2.1
		c1.34-1.4,2.01-3.43,2.01-6.09c0-2.67-0.67-4.71-2.01-6.13c-1.34-1.42-3.28-2.13-5.81-2.13c-2.53,0-4.47,0.71-5.81,2.13
		C885.13,11.88,884.46,13.93,884.46,16.6z"/>
	<path class="st0" d="M917.2,31.84V1.33h13.99l11.78,17.58V1.33h11.45v30.52h-13.27l-12.81-17.87v17.87H917.2z"/>
</g>
</svg>
