<?xml version="1.0" encoding="utf-8"?>
<!-- Generator: Adobe Illustrator 28.3.0, SVG Export Plug-In . SVG Version: 6.00 Build 0)  -->
<svg version="1.1" id="Layer_1" xmlns="http://www.w3.org/2000/svg" xmlns:xlink="http://www.w3.org/1999/xlink" x="0px" y="0px"
	 viewBox="0 0 1500 54" style="enable-background:new 0 0 1500 54;" xml:space="preserve">
<style type="text/css">
	.st0{fill:#CDCABE;}
</style>
<path class="st0" d="M27.15,22.43L17.59,0.77h9.48l4.58,14.5l4.83-14.5h9.39l-9.96,21.67H27.15z"/>
<path class="st0" d="M45.43,22.43V0.77h8.39v21.67H45.43z"/>
<path class="st0" d="M55.69,15.84l10.17-0.01c0.08,0.59,0.44,1.04,1.1,1.35c0.65,0.32,1.55,0.48,2.68,0.48s1.98-0.13,2.54-0.39
	c0.56-0.26,0.84-0.65,0.84-1.16c0-0.46-0.24-0.83-0.73-1.11c-0.49-0.28-1.24-0.48-2.26-0.61l-6.27-0.78
	c-2.6-0.31-4.55-1.01-5.87-2.09s-1.97-2.53-1.97-4.35c0-2.42,0.99-4.19,2.98-5.3s5.15-1.67,9.5-1.67c4.51,0,7.87,0.56,10.06,1.67
	s3.38,2.85,3.56,5.2h-9.76c-0.11-0.68-0.52-1.2-1.23-1.55C70.33,5.18,69.33,5,68.04,5c-0.94,0-1.67,0.13-2.21,0.39
	S65.02,6,65.02,6.44c0,0.41,0.21,0.72,0.62,0.94s1.28,0.42,2.59,0.6l7.65,1.08c2.39,0.34,4.18,1.04,5.36,2.09
	c1.18,1.05,1.77,2.46,1.77,4.24c0,2.66-1.18,4.6-3.54,5.84s-6.09,1.86-11.18,1.86c-4.04,0-7.15-0.62-9.31-1.88
	S55.72,18.18,55.69,15.84z"/>
<path class="st0" d="M93.3,0.77v10.59c0,2.18,0.33,3.69,0.99,4.53c0.66,0.85,1.8,1.27,3.42,1.27s2.76-0.42,3.41-1.26
	c0.65-0.84,0.97-2.35,0.97-4.54V0.77h8.41v11.38c0,3.76-1.02,6.51-3.07,8.26s-5.29,2.62-9.72,2.62c-4.4,0-7.64-0.88-9.7-2.64
	s-3.1-4.51-3.1-8.25V0.77H93.3z"/>
<path class="st0" d="M109.98,22.43l9.39-21.67h10.65l8.76,21.67h-9.1l-0.72-2.12h-9.21l-0.78,2.12H109.98z M121.73,14.96h5.38
	l-2.61-7.62L121.73,14.96z"/>
<path class="st0" d="M138.8,22.43V0.77h8.39v15.72h13.23v5.95H138.8z"/>
<path class="st0" d="M161.57,22.43V0.77h8.39v21.67H161.57z"/>
<path class="st0" d="M171.56,22.43v-4.8l12.7-11.43h-11.95V0.77h23.35v4.92l-12.63,11.04h12.2v5.7H171.56z"/>
<path class="st0" d="M197.27,22.43V0.77h8.39v21.67H197.27z"/>
<path class="st0" d="M208.86,22.43V0.77h9.93l8.36,12.48V0.77h8.13v21.67h-9.42l-9.1-12.69v12.69H208.86z"/>
<path class="st0" d="M261.32,20.51c-0.98,0.86-2.23,1.49-3.76,1.89s-3.43,0.6-5.72,0.6c-4.81,0-8.45-0.96-10.9-2.88
	c-2.45-1.92-3.68-4.76-3.68-8.52c0-3.77,1.23-6.61,3.68-8.53c2.45-1.92,6.08-2.88,10.9-2.88c4.05,0,7.3,0.69,9.74,2.07
	s3.82,3.29,4.15,5.74h-9.2c-0.45-0.88-1.04-1.53-1.78-1.96s-1.63-0.64-2.67-0.64c-1.75,0-3.15,0.56-4.2,1.68s-1.58,2.63-1.58,4.53
	c0,1.91,0.52,3.4,1.56,4.46c1.04,1.06,2.49,1.59,4.36,1.59c1.4,0,2.56-0.25,3.49-0.76c0.93-0.51,1.49-1.2,1.7-2.08h-3.49v-4.69h12.1
	v12.3h-3.78L261.32,20.51z"/>
<path class="st0" d="M278.15,22.43l9.39-21.67h10.65l8.76,21.67h-9.1l-0.72-2.12h-9.21l-0.78,2.12H278.15z M289.9,14.96h5.38
	l-2.61-7.62L289.9,14.96z"/>
<path class="st0" d="M323.47,0.77c1.88,0,3.39,0.09,4.53,0.27c1.13,0.18,2.02,0.46,2.65,0.84c0.81,0.48,1.43,1.12,1.85,1.93
	c0.42,0.8,0.64,1.74,0.64,2.79c0,1.28-0.32,2.41-0.95,3.38c-0.63,0.97-1.51,1.67-2.62,2.1c0.96,0.4,1.63,0.9,2.01,1.49
	s0.61,1.63,0.68,3.13c0.01,0.17,0.02,0.4,0.03,0.69c0.14,2.83,0.52,4.4,1.14,4.72v0.34h-9.33c-0.28-0.46-0.44-1.35-0.47-2.67
	c-0.02-0.77-0.05-1.37-0.1-1.79c-0.09-0.79-0.35-1.35-0.8-1.67c-0.44-0.32-1.19-0.48-2.23-0.48h-5.01v6.61h-8.51V0.77H323.47z
	 M315.49,10.13h4.89c1.28,0,2.18-0.15,2.7-0.45s0.78-0.81,0.78-1.52c0-0.7-0.25-1.19-0.74-1.47c-0.49-0.28-1.48-0.42-2.95-0.42
	h-4.69V10.13z"/>
<path class="st0" d="M353.27,9.86c-0.14-1.34-0.61-2.36-1.42-3.06s-1.92-1.05-3.33-1.05c-1.8,0-3.17,0.5-4.12,1.51
	c-0.95,1.01-1.43,2.46-1.43,4.35c0,1.88,0.48,3.33,1.43,4.32c0.95,1,2.33,1.49,4.12,1.49c1.3,0,2.35-0.29,3.14-0.89
	c0.8-0.59,1.32-1.47,1.58-2.63h9.68c-0.44,3-1.88,5.26-4.31,6.8s-5.8,2.3-10.08,2.3c-4.81,0-8.45-0.96-10.9-2.88
	c-2.45-1.92-3.68-4.76-3.68-8.52c0-3.77,1.23-6.61,3.68-8.53c2.45-1.92,6.08-2.88,10.9-2.88c4.49,0,7.97,0.83,10.43,2.5
	s3.76,4.05,3.91,7.17H353.27z"/>
<path class="st0" d="M364.55,22.43V0.77h8.39v7.5h9.58v-7.5h8.39v21.67h-8.39v-8.76h-9.58v8.76H364.55z"/>
<path class="st0" d="M394.16,22.43V0.77h8.39v21.67H394.16z"/>
<path class="st0" d="M411.29,22.43V6.26h-7.84V0.77h24.1v5.49h-7.87v16.17H411.29z"/>
<path class="st0" d="M428.49,22.43V0.77h22.95v5.32h-14.56v2.58h11.79v5.35h-11.79v2.84h15.28v5.58H428.49z"/>
<path class="st0" d="M471.41,9.86c-0.14-1.34-0.61-2.36-1.42-3.06s-1.92-1.05-3.33-1.05c-1.8,0-3.17,0.5-4.12,1.51
	c-0.95,1.01-1.43,2.46-1.43,4.35c0,1.88,0.48,3.33,1.43,4.32c0.95,1,2.33,1.49,4.12,1.49c1.3,0,2.35-0.29,3.14-0.89
	c0.8-0.59,1.32-1.47,1.58-2.63h9.68c-0.44,3-1.88,5.26-4.31,6.8s-5.8,2.3-10.08,2.3c-4.81,0-8.45-0.96-10.9-2.88
	c-2.45-1.92-3.68-4.76-3.68-8.52c0-3.77,1.23-6.61,3.68-8.53c2.45-1.92,6.08-2.88,10.9-2.88c4.49,0,7.97,0.83,10.43,2.5
	s3.76,4.05,3.91,7.17H471.41z"/>
<path class="st0" d="M488.21,22.43V6.26h-7.84V0.77h24.1v5.49h-7.87v16.17H488.21z"/>
<path class="st0" d="M513.8,0.77v10.59c0,2.18,0.33,3.69,0.99,4.53c0.66,0.85,1.8,1.27,3.42,1.27s2.76-0.42,3.41-1.26
	c0.65-0.84,0.97-2.35,0.97-4.54V0.77h8.41v11.38c0,3.76-1.02,6.51-3.07,8.26s-5.29,2.62-9.72,2.62c-4.4,0-7.64-0.88-9.71-2.64
	c-2.06-1.76-3.1-4.51-3.1-8.25V0.77H513.8z"/>
<path class="st0" d="M550.73,0.77c1.88,0,3.39,0.09,4.53,0.27c1.13,0.18,2.02,0.46,2.65,0.84c0.81,0.48,1.43,1.12,1.85,1.93
	c0.42,0.8,0.64,1.74,0.64,2.79c0,1.28-0.32,2.41-0.95,3.38c-0.63,0.97-1.51,1.67-2.62,2.1c0.96,0.4,1.63,0.9,2.01,1.49
	s0.61,1.63,0.68,3.13c0.01,0.17,0.02,0.4,0.03,0.69c0.14,2.83,0.52,4.4,1.14,4.72v0.34h-9.33c-0.28-0.46-0.44-1.35-0.47-2.67
	c-0.02-0.77-0.05-1.37-0.1-1.79c-0.09-0.79-0.35-1.35-0.8-1.67c-0.44-0.32-1.19-0.48-2.23-0.48h-5.01v6.61h-8.51V0.77H550.73z
	 M542.75,10.13h4.89c1.28,0,2.18-0.15,2.7-0.45s0.78-0.81,0.78-1.52c0-0.7-0.25-1.19-0.74-1.47c-0.49-0.28-1.48-0.42-2.95-0.42
	h-4.69V10.13z"/>
<path class="st0" d="M562.47,22.43V0.77h22.95v5.32h-14.56v2.58h11.79v5.35h-11.79v2.84h15.28v5.58H562.47z"/>
<path class="st0" d="M588.21,19.43V12.5h7.87v4.58c0,1.26-0.14,2.22-0.41,2.88c-0.27,0.66-0.74,1.24-1.39,1.75
	c-0.62,0.49-1.36,0.93-2.2,1.33s-1.8,0.75-2.87,1.05l-0.66-2.75c0.67-0.22,1.16-0.49,1.46-0.78s0.46-0.68,0.47-1.13H588.21z"/>
<path class="st0" d="M611.68,15.84l10.17-0.01c0.08,0.59,0.44,1.04,1.1,1.35c0.65,0.32,1.55,0.48,2.68,0.48s1.98-0.13,2.54-0.39
	c0.56-0.26,0.84-0.65,0.84-1.16c0-0.46-0.24-0.83-0.73-1.11c-0.49-0.28-1.24-0.48-2.26-0.61l-6.27-0.78
	c-2.6-0.31-4.55-1.01-5.87-2.09c-1.31-1.08-1.97-2.53-1.97-4.35c0-2.42,0.99-4.19,2.98-5.3s5.15-1.67,9.5-1.67
	c4.51,0,7.87,0.56,10.06,1.67s3.38,2.85,3.56,5.2h-9.76c-0.11-0.68-0.52-1.2-1.23-1.55c-0.71-0.35-1.71-0.52-3-0.52
	c-0.94,0-1.67,0.13-2.21,0.39s-0.81,0.61-0.81,1.05c0,0.41,0.21,0.72,0.62,0.94s1.28,0.42,2.59,0.6l7.65,1.08
	c2.39,0.34,4.18,1.04,5.36,2.09c1.18,1.05,1.77,2.46,1.77,4.24c0,2.66-1.18,4.6-3.54,5.84s-6.09,1.86-11.18,1.86
	c-4.04,0-7.15-0.62-9.31-1.88C612.8,19.97,611.71,18.18,611.68,15.84z"/>
<path class="st0" d="M640.89,22.43V0.77h16.2c3.07,0,5.43,0.61,7.1,1.84c1.66,1.23,2.5,2.96,2.5,5.19c0,2.23-0.83,3.95-2.5,5.18
	c-1.67,1.23-4.03,1.84-7.1,1.84h-7.81v7.62H640.89z M653.89,5.43h-4.6v4.67h4.6c1.37,0,2.31-0.17,2.83-0.52
	c0.52-0.35,0.78-0.95,0.78-1.81c0-0.87-0.26-1.48-0.78-1.82C656.2,5.6,655.25,5.43,653.89,5.43z"/>
<path class="st0" d="M663.31,22.43l9.39-21.67h10.65l8.76,21.67h-9.1l-0.72-2.12h-9.21l-0.78,2.12H663.31z M675.06,14.96h5.38
	l-2.61-7.62L675.06,14.96z"/>
<path class="st0" d="M709.67,9.86c-0.14-1.34-0.61-2.36-1.42-3.06s-1.92-1.05-3.33-1.05c-1.8,0-3.17,0.5-4.12,1.51
	c-0.95,1.01-1.43,2.46-1.43,4.35c0,1.88,0.48,3.33,1.43,4.32c0.95,1,2.33,1.49,4.12,1.49c1.3,0,2.35-0.29,3.14-0.89
	c0.8-0.59,1.32-1.47,1.58-2.63h9.68c-0.44,3-1.88,5.26-4.31,6.8s-5.8,2.3-10.08,2.3c-4.81,0-8.45-0.96-10.9-2.88
	c-2.45-1.92-3.68-4.76-3.68-8.52c0-3.77,1.23-6.61,3.68-8.53c2.45-1.92,6.08-2.88,10.9-2.88c4.49,0,7.97,0.83,10.43,2.5
	s3.76,4.05,3.91,7.17H709.67z"/>
<path class="st0" d="M720.94,22.43V0.77h22.95v5.32h-14.56v2.58h11.79v5.35h-11.79v2.84h15.28v5.58H720.94z"/>
<path class="st0" d="M744.46,15.84l10.17-0.01c0.08,0.59,0.44,1.04,1.1,1.35c0.65,0.32,1.55,0.48,2.68,0.48s1.98-0.13,2.54-0.39
	c0.56-0.26,0.84-0.65,0.84-1.16c0-0.46-0.24-0.83-0.73-1.11c-0.49-0.28-1.24-0.48-2.26-0.61l-6.27-0.78
	c-2.6-0.31-4.55-1.01-5.87-2.09c-1.31-1.08-1.97-2.53-1.97-4.35c0-2.42,0.99-4.19,2.98-5.3s5.15-1.67,9.5-1.67
	c4.51,0,7.87,0.56,10.06,1.67s3.38,2.85,3.56,5.2h-9.76c-0.11-0.68-0.52-1.2-1.23-1.55c-0.71-0.35-1.71-0.52-3-0.52
	c-0.94,0-1.67,0.13-2.21,0.39S753.8,6,753.8,6.44c0,0.41,0.21,0.72,0.62,0.94s1.28,0.42,2.59,0.6l7.65,1.08
	c2.39,0.34,4.18,1.04,5.36,2.09c1.18,1.05,1.77,2.46,1.77,4.24c0,2.66-1.18,4.6-3.54,5.84s-6.09,1.86-11.18,1.86
	c-4.04,0-7.15-0.62-9.31-1.88C745.59,19.97,744.49,18.18,744.46,15.84z"/>
<path class="st0" d="M774.55,19.43V12.5h7.87v4.58c0,1.26-0.14,2.22-0.41,2.88c-0.27,0.66-0.74,1.24-1.39,1.75
	c-0.62,0.49-1.36,0.93-2.2,1.33s-1.8,0.75-2.87,1.05l-0.66-2.75c0.67-0.22,1.16-0.49,1.46-0.78s0.46-0.68,0.47-1.13H774.55z"/>
<path class="st0" d="M799.36,22.43V0.77h22.95v5.32h-14.56v2.58h11.79v5.35h-11.79v2.84h15.28v5.58H799.36z"/>
<path class="st0" d="M824.2,22.43V0.77h9.93l8.36,12.48V0.77h8.13v21.67h-9.42l-9.1-12.69v12.69H824.2z"/>
<path class="st0" d="M859.75,22.43l-9.57-21.67h9.48l4.58,14.5l4.83-14.5h9.39l-9.96,21.67H859.75z"/>
<path class="st0" d="M878.02,22.43V0.77h8.39v21.67H878.02z"/>
<path class="st0" d="M906.13,0.77c1.88,0,3.39,0.09,4.53,0.27c1.13,0.18,2.02,0.46,2.65,0.84c0.81,0.48,1.43,1.12,1.85,1.93
	c0.42,0.8,0.64,1.74,0.64,2.79c0,1.28-0.32,2.41-0.95,3.38c-0.63,0.97-1.51,1.67-2.62,2.1c0.96,0.4,1.63,0.9,2.01,1.49
	s0.61,1.63,0.68,3.13c0.01,0.17,0.02,0.4,0.03,0.69c0.14,2.83,0.52,4.4,1.14,4.72v0.34h-9.33c-0.28-0.46-0.44-1.35-0.47-2.67
	c-0.02-0.77-0.05-1.37-0.1-1.79c-0.09-0.79-0.35-1.35-0.8-1.67c-0.44-0.32-1.19-0.48-2.23-0.48h-5.01v6.61h-8.51V0.77H906.13z
	 M898.14,10.13h4.89c1.28,0,2.18-0.15,2.7-0.45s0.78-0.81,0.78-1.52c0-0.7-0.25-1.19-0.74-1.47c-0.49-0.28-1.48-0.42-2.95-0.42
	h-4.69V10.13z"/>
<path class="st0" d="M916.61,11.61c0-3.77,1.23-6.61,3.68-8.53c2.45-1.92,6.08-2.88,10.9-2.88s8.45,0.96,10.9,2.88
	c2.45,1.92,3.68,4.76,3.68,8.53c0,3.76-1.23,6.6-3.68,8.52C939.63,22.04,936,23,931.18,23s-8.45-0.96-10.9-2.88
	C917.84,18.21,916.61,15.37,916.61,11.61z M925.63,11.61c0,1.88,0.48,3.33,1.43,4.32c0.95,1,2.33,1.49,4.12,1.49s3.17-0.5,4.12-1.49
	c0.95-1,1.43-2.44,1.43-4.32c0-1.89-0.48-3.34-1.43-4.35c-0.95-1.01-2.33-1.51-4.12-1.51s-3.17,0.5-4.12,1.51
	C926.11,8.26,925.63,9.71,925.63,11.61z"/>
<path class="st0" d="M947.72,22.43V0.77h9.93l8.36,12.48V0.77h8.13v21.67h-9.42l-9.1-12.69v12.69H947.72z"/>
<path class="st0" d="M977.39,22.43V0.77h12.45l3.66,13.2l3.96-13.2h12.28v21.67h-7.78V5.51l-5.16,16.92h-6.55l-5.1-16.92v16.92
	H977.39z"/>
<path class="st0" d="M1012.96,22.43V0.77h22.95v5.32h-14.56v2.58h11.79v5.35h-11.79v2.84h15.28v5.58H1012.96z"/>
<path class="st0" d="M1037.8,22.43V0.77h9.93l8.36,12.48V0.77h8.13v21.67h-9.42l-9.1-12.69v12.69H1037.8z"/>
<path class="st0" d="M1073,22.43V6.26h-7.84V0.77h24.1v5.49h-7.87v16.17H1073z"/>
<path class="st0" d="M1088.84,15.84l10.17-0.01c0.08,0.59,0.44,1.04,1.1,1.35c0.65,0.32,1.55,0.48,2.68,0.48s1.98-0.13,2.54-0.39
	c0.56-0.26,0.84-0.65,0.84-1.16c0-0.46-0.24-0.83-0.73-1.11c-0.49-0.28-1.24-0.48-2.26-0.61l-6.27-0.78
	c-2.6-0.31-4.55-1.01-5.87-2.09c-1.31-1.08-1.97-2.53-1.97-4.35c0-2.42,0.99-4.19,2.98-5.3s5.15-1.67,9.5-1.67
	c4.51,0,7.87,0.56,10.06,1.67s3.38,2.85,3.56,5.2h-9.76c-0.11-0.68-0.52-1.2-1.23-1.55c-0.71-0.35-1.71-0.52-3-0.52
	c-0.94,0-1.67,0.13-2.21,0.39s-0.81,0.61-0.81,1.05c0,0.41,0.21,0.72,0.62,0.94s1.28,0.42,2.59,0.6l7.65,1.08
	c2.39,0.34,4.18,1.04,5.36,2.09c1.18,1.05,1.77,2.46,1.77,4.24c0,2.66-1.18,4.6-3.54,5.84s-6.09,1.86-11.18,1.86
	c-4.04,0-7.15-0.62-9.31-1.88C1089.97,19.97,1088.87,18.18,1088.84,15.84z"/>
<path class="st0" d="M1118.92,19.43V12.5h7.87v4.58c0,1.26-0.14,2.22-0.41,2.88c-0.27,0.66-0.74,1.24-1.39,1.75
	c-0.62,0.49-1.36,0.93-2.2,1.33s-1.8,0.75-2.87,1.05l-0.66-2.75c0.67-0.22,1.16-0.49,1.46-0.78s0.46-0.68,0.47-1.13H1118.92z"/>
<path class="st0" d="M1140.5,22.43l9.39-21.67h10.65l8.76,21.67h-9.1l-0.72-2.12h-9.21l-0.78,2.12H1140.5z M1152.25,14.96h5.38
	l-2.61-7.62L1152.25,14.96z"/>
<path class="st0" d="M1169.3,22.43V0.77h9.93l8.36,12.48V0.77h8.13v21.67h-9.42l-9.1-12.69v12.69H1169.3z"/>
<path class="st0" d="M1198.97,0.74h13.89c4.49,0,7.92,0.93,10.27,2.78s3.53,4.55,3.53,8.09c0,3.54-1.17,6.22-3.52,8.06
	c-2.34,1.84-5.77,2.76-10.28,2.76h-13.89V0.74z M1207.36,6.11v10.56h4.17c2.18,0,3.74-0.41,4.68-1.24c0.94-0.83,1.41-2.18,1.41-4.05
	c0-1.87-0.48-3.21-1.43-4.04c-0.95-0.83-2.51-1.24-4.67-1.24H1207.36z"/>
<path class="st0" d="M1241.54,22.43V0.77h16.2c3.07,0,5.43,0.61,7.1,1.84c1.66,1.23,2.5,2.96,2.5,5.19c0,2.23-0.83,3.95-2.5,5.18
	c-1.67,1.23-4.03,1.84-7.1,1.84h-7.81v7.62H1241.54z M1254.53,5.43h-4.6v4.67h4.6c1.37,0,2.31-0.17,2.83-0.52
	c0.52-0.35,0.78-0.95,0.78-1.81c0-0.87-0.26-1.48-0.78-1.82C1256.84,5.6,1255.9,5.43,1254.53,5.43z"/>
<path class="st0" d="M1285.18,0.77c1.88,0,3.39,0.09,4.53,0.27c1.13,0.18,2.02,0.46,2.65,0.84c0.81,0.48,1.43,1.12,1.85,1.93
	c0.42,0.8,0.64,1.74,0.64,2.79c0,1.28-0.32,2.41-0.95,3.38c-0.63,0.97-1.51,1.67-2.62,2.1c0.96,0.4,1.63,0.9,2.01,1.49
	s0.61,1.63,0.68,3.13c0.01,0.17,0.02,0.4,0.03,0.69c0.14,2.83,0.52,4.4,1.14,4.72v0.34h-9.33c-0.28-0.46-0.44-1.35-0.47-2.67
	c-0.02-0.77-0.05-1.37-0.1-1.79c-0.09-0.79-0.35-1.35-0.8-1.67c-0.44-0.32-1.19-0.48-2.23-0.48h-5.01v6.61h-8.51V0.77H1285.18z
	 M1277.2,10.13h4.89c1.28,0,2.18-0.15,2.7-0.45s0.78-0.81,0.78-1.52c0-0.7-0.25-1.19-0.74-1.47c-0.49-0.28-1.48-0.42-2.95-0.42
	h-4.69V10.13z"/>
<path class="st0" d="M1295.67,11.61c0-3.77,1.23-6.61,3.68-8.53c2.45-1.92,6.08-2.88,10.9-2.88s8.45,0.96,10.9,2.88
	c2.45,1.92,3.68,4.76,3.68,8.53c0,3.76-1.23,6.6-3.68,8.52c-2.45,1.92-6.08,2.88-10.9,2.88s-8.45-0.96-10.9-2.88
	C1296.89,18.21,1295.67,15.37,1295.67,11.61z M1304.69,11.61c0,1.88,0.48,3.33,1.43,4.32c0.95,1,2.33,1.49,4.12,1.49
	s3.17-0.5,4.12-1.49c0.95-1,1.43-2.44,1.43-4.32c0-1.89-0.48-3.34-1.43-4.35c-0.95-1.01-2.33-1.51-4.12-1.51s-3.17,0.5-4.12,1.51
	C1305.17,8.26,1304.69,9.71,1304.69,11.61z"/>
<path class="st0" d="M1326.8,0.74h13.89c4.49,0,7.92,0.93,10.27,2.78s3.53,4.55,3.53,8.09c0,3.54-1.17,6.22-3.52,8.06
	c-2.34,1.84-5.77,2.76-10.28,2.76h-13.89V0.74z M1335.2,6.11v10.56h4.17c2.18,0,3.74-0.41,4.68-1.24c0.94-0.83,1.41-2.18,1.41-4.05
	c0-1.87-0.48-3.21-1.43-4.04c-0.95-0.83-2.51-1.24-4.67-1.24H1335.2z"/>
<path class="st0" d="M1364.93,0.77v10.59c0,2.18,0.33,3.69,0.99,4.53c0.66,0.85,1.8,1.27,3.42,1.27s2.76-0.42,3.41-1.26
	c0.65-0.84,0.97-2.35,0.97-4.54V0.77h8.41v11.38c0,3.76-1.02,6.51-3.07,8.26s-5.29,2.62-9.72,2.62c-4.4,0-7.64-0.88-9.71-2.64
	c-2.06-1.76-3.1-4.51-3.1-8.25V0.77H1364.93z"/>
<path class="st0" d="M1403.43,9.86c-0.14-1.34-0.61-2.36-1.42-3.06s-1.92-1.05-3.33-1.05c-1.8,0-3.17,0.5-4.12,1.51
	c-0.95,1.01-1.43,2.46-1.43,4.35c0,1.88,0.48,3.33,1.43,4.32c0.95,1,2.33,1.49,4.12,1.49c1.3,0,2.35-0.29,3.14-0.89
	c0.8-0.59,1.32-1.47,1.58-2.63h9.68c-0.44,3-1.88,5.26-4.31,6.8s-5.8,2.3-10.08,2.3c-4.81,0-8.45-0.96-10.9-2.88
	c-2.45-1.92-3.68-4.76-3.68-8.52c0-3.77,1.23-6.61,3.68-8.53c2.45-1.92,6.08-2.88,10.9-2.88c4.49,0,7.97,0.83,10.43,2.5
	s3.76,4.05,3.91,7.17H1403.43z"/>
<path class="st0" d="M1420.23,22.43V6.26h-7.84V0.77h24.1v5.49h-7.87v16.17H1420.23z"/>
<path class="st0" d="M1436.07,15.84l10.17-0.01c0.08,0.59,0.44,1.04,1.1,1.35c0.65,0.32,1.55,0.48,2.68,0.48s1.98-0.13,2.54-0.39
	c0.56-0.26,0.84-0.65,0.84-1.16c0-0.46-0.24-0.83-0.73-1.11c-0.49-0.28-1.24-0.48-2.26-0.61l-6.27-0.78
	c-2.6-0.31-4.55-1.01-5.87-2.09c-1.31-1.08-1.97-2.53-1.97-4.35c0-2.42,0.99-4.19,2.98-5.3s5.15-1.67,9.5-1.67
	c4.51,0,7.87,0.56,10.06,1.67s3.38,2.85,3.56,5.2h-9.76c-0.11-0.68-0.52-1.2-1.23-1.55c-0.71-0.35-1.71-0.52-3-0.52
	c-0.94,0-1.67,0.13-2.21,0.39s-0.81,0.61-0.81,1.05c0,0.41,0.21,0.72,0.62,0.94s1.28,0.42,2.59,0.6l7.65,1.08
	c2.39,0.34,4.18,1.04,5.36,2.09c1.18,1.05,1.77,2.46,1.77,4.24c0,2.66-1.18,4.6-3.54,5.84s-6.09,1.86-11.18,1.86
	c-4.04,0-7.15-0.62-9.31-1.88C1437.2,19.97,1436.1,18.18,1436.07,15.84z"/>
<g>
	<path class="st0" d="M332.84,51.62V35.45H325v-5.49h24.1v5.49h-7.87v16.17H332.84z"/>
	<path class="st0" d="M350.03,51.62V29.96h8.39v7.5H368v-7.5h8.39v21.67H368v-8.76h-9.58v8.76H350.03z"/>
	<path class="st0" d="M396.14,29.96c1.88,0,3.39,0.09,4.53,0.27c1.13,0.18,2.02,0.46,2.65,0.84c0.81,0.48,1.43,1.12,1.85,1.93
		c0.42,0.8,0.64,1.74,0.64,2.79c0,1.28-0.32,2.41-0.95,3.38c-0.63,0.97-1.51,1.67-2.62,2.1c0.96,0.4,1.63,0.9,2.01,1.49
		s0.61,1.63,0.68,3.13c0.01,0.17,0.02,0.4,0.03,0.69c0.14,2.83,0.52,4.4,1.14,4.72v0.34h-9.33c-0.28-0.46-0.44-1.35-0.47-2.67
		c-0.02-0.77-0.05-1.37-0.1-1.79c-0.09-0.79-0.35-1.35-0.8-1.67s-1.19-0.48-2.23-0.48h-5.01v6.61h-8.51V29.96H396.14z M388.15,39.32
		h4.89c1.28,0,2.18-0.15,2.7-0.45s0.78-0.81,0.78-1.52c0-0.7-0.25-1.19-0.74-1.47c-0.49-0.28-1.48-0.42-2.95-0.42h-4.69V39.32z"/>
	<path class="st0" d="M406.62,40.8c0-3.77,1.23-6.61,3.68-8.53c2.45-1.92,6.08-2.88,10.9-2.88s8.45,0.96,10.9,2.88
		c2.45,1.92,3.68,4.76,3.68,8.53c0,3.76-1.23,6.6-3.68,8.52c-2.45,1.92-6.08,2.88-10.9,2.88s-8.45-0.96-10.9-2.88
		C407.84,47.39,406.62,44.56,406.62,40.8z M415.64,40.8c0,1.88,0.48,3.33,1.43,4.32s2.33,1.49,4.12,1.49s3.17-0.5,4.12-1.49
		c0.95-1,1.43-2.44,1.43-4.32c0-1.89-0.48-3.34-1.43-4.35c-0.95-1.01-2.33-1.51-4.12-1.51s-3.17,0.5-4.12,1.51
		S415.64,38.9,415.64,40.8z"/>
	<path class="st0" d="M446.15,29.96v10.59c0,2.18,0.33,3.69,0.99,4.53c0.66,0.85,1.8,1.27,3.42,1.27s2.76-0.42,3.41-1.26
		c0.65-0.84,0.97-2.35,0.97-4.54V29.96h8.41v11.38c0,3.76-1.02,6.51-3.07,8.26s-5.29,2.62-9.72,2.62c-4.4,0-7.64-0.88-9.71-2.64
		c-2.06-1.76-3.1-4.51-3.1-8.25V29.96H446.15z"/>
	<path class="st0" d="M489.39,49.7c-0.98,0.86-2.23,1.49-3.76,1.89s-3.43,0.6-5.72,0.6c-4.81,0-8.45-0.96-10.9-2.88
		c-2.45-1.92-3.68-4.76-3.68-8.52c0-3.77,1.23-6.61,3.68-8.53c2.45-1.92,6.08-2.88,10.9-2.88c4.05,0,7.3,0.69,9.74,2.07
		s3.82,3.29,4.15,5.74h-9.2c-0.45-0.88-1.04-1.53-1.78-1.96s-1.63-0.64-2.67-0.64c-1.75,0-3.15,0.56-4.2,1.68s-1.58,2.63-1.58,4.53
		c0,1.91,0.52,3.4,1.56,4.46c1.04,1.06,2.49,1.59,4.36,1.59c1.4,0,2.56-0.25,3.49-0.76s1.49-1.2,1.7-2.08h-3.49v-4.69h12.1v12.3
		h-3.78L489.39,49.7z"/>
	<path class="st0" d="M496.62,51.62V29.96h8.39v7.5h9.58v-7.5h8.39v21.67h-8.39v-8.76h-9.58v8.76H496.62z"/>
	<path class="st0" d="M537.72,45.03l10.17-0.01c0.08,0.59,0.44,1.04,1.1,1.35c0.65,0.32,1.55,0.48,2.68,0.48s1.98-0.13,2.54-0.39
		c0.56-0.26,0.84-0.65,0.84-1.16c0-0.46-0.24-0.83-0.73-1.11c-0.49-0.28-1.24-0.48-2.26-0.61l-6.27-0.78
		c-2.6-0.31-4.55-1.01-5.87-2.09c-1.31-1.08-1.97-2.53-1.97-4.35c0-2.42,0.99-4.19,2.98-5.3s5.15-1.67,9.5-1.67
		c4.51,0,7.87,0.56,10.06,1.67s3.38,2.85,3.56,5.2h-9.76c-0.11-0.68-0.52-1.2-1.23-1.55c-0.71-0.35-1.71-0.52-3-0.52
		c-0.94,0-1.67,0.13-2.21,0.39s-0.81,0.61-0.81,1.05c0,0.41,0.21,0.72,0.62,0.94s1.28,0.42,2.59,0.6l7.65,1.08
		c2.39,0.34,4.18,1.04,5.36,2.09c1.18,1.05,1.77,2.46,1.77,4.24c0,2.66-1.18,4.6-3.54,5.84s-6.09,1.86-11.18,1.86
		c-4.04,0-7.15-0.62-9.31-1.88C538.85,49.15,537.75,47.36,537.72,45.03z"/>
	<path class="st0" d="M572.46,51.62V35.45h-7.84v-5.49h24.1v5.49h-7.87v16.17H572.46z"/>
	<path class="st0" d="M589.65,51.62V29.96h8.39v21.67H589.65z"/>
	<path class="st0" d="M601.26,51.62V29.96h8.39v15.72h13.23v5.95H601.26z"/>
	<path class="st0" d="M624.04,51.62V29.96h8.39v15.72h13.23v5.95H624.04z"/>
	<path class="st0" d="M659.65,51.62V29.96h8.39v21.67H659.65z"/>
	<path class="st0" d="M671.26,51.62V29.96h12.45l3.66,13.2l3.96-13.2h12.28v21.67h-7.78V34.7l-5.16,16.92h-6.55l-5.1-16.92v16.92
		H671.26z"/>
	<path class="st0" d="M703.6,51.62l9.39-21.67h10.65l8.76,21.67h-9.1l-0.72-2.12h-9.21l-0.78,2.12H703.6z M715.35,44.15h5.38
		l-2.61-7.62L715.35,44.15z"/>
	<path class="st0" d="M754.69,49.7c-0.98,0.86-2.23,1.49-3.76,1.89s-3.43,0.6-5.72,0.6c-4.81,0-8.45-0.96-10.9-2.88
		c-2.45-1.92-3.68-4.76-3.68-8.52c0-3.77,1.23-6.61,3.68-8.53c2.45-1.92,6.08-2.88,10.9-2.88c4.05,0,7.3,0.69,9.74,2.07
		s3.82,3.29,4.15,5.74h-9.2c-0.45-0.88-1.04-1.53-1.78-1.96s-1.63-0.64-2.67-0.64c-1.75,0-3.15,0.56-4.2,1.68s-1.58,2.63-1.58,4.53
		c0,1.91,0.52,3.4,1.56,4.46c1.04,1.06,2.49,1.59,4.36,1.59c1.4,0,2.56-0.25,3.49-0.76s1.49-1.2,1.7-2.08h-3.49v-4.69h12.1v12.3
		h-3.78L754.69,49.7z"/>
	<path class="st0" d="M761.92,51.62V29.96h22.95v5.32h-14.56v2.58h11.79v5.35h-11.79v2.84h15.28v5.58H761.92z"/>
	<path class="st0" d="M803.28,29.96c1.88,0,3.39,0.09,4.53,0.27c1.13,0.18,2.02,0.46,2.65,0.84c0.81,0.48,1.43,1.12,1.85,1.93
		c0.42,0.8,0.64,1.74,0.64,2.79c0,1.28-0.32,2.41-0.95,3.38c-0.63,0.97-1.51,1.67-2.62,2.1c0.96,0.4,1.63,0.9,2.01,1.49
		s0.61,1.63,0.68,3.13c0.01,0.17,0.02,0.4,0.03,0.69c0.14,2.83,0.52,4.4,1.14,4.72v0.34h-9.33c-0.28-0.46-0.44-1.35-0.47-2.67
		c-0.02-0.77-0.05-1.37-0.1-1.79c-0.09-0.79-0.35-1.35-0.8-1.67s-1.19-0.48-2.23-0.48h-5.01v6.61h-8.51V29.96H803.28z M795.29,39.32
		h4.89c1.28,0,2.18-0.15,2.7-0.45s0.78-0.81,0.78-1.52c0-0.7-0.25-1.19-0.74-1.47c-0.49-0.28-1.48-0.42-2.95-0.42h-4.69V39.32z"/>
	<path class="st0" d="M820.86,51.62V45.5l-9.51-15.54h9.87l3.9,8.92l4.15-8.92h9.65l-9.65,15.54v6.12H820.86z"/>
	<path class="st0" d="M848.11,51.62l9.39-21.67h10.65l8.76,21.67h-9.1l-0.72-2.12h-9.21l-0.78,2.12H848.11z M859.86,44.15h5.38
		l-2.61-7.62L859.86,44.15z"/>
	<path class="st0" d="M876.91,51.62V29.96h9.93l8.36,12.48V29.96h8.13v21.67h-9.42l-9.1-12.69v12.69H876.91z"/>
	<path class="st0" d="M906.58,29.93h13.89c4.49,0,7.92,0.93,10.27,2.78s3.53,4.55,3.53,8.09c0,3.54-1.17,6.22-3.52,8.06
		c-2.34,1.84-5.77,2.76-10.28,2.76h-13.89V29.93z M914.97,35.3v10.56h4.17c2.18,0,3.74-0.41,4.68-1.24s1.41-2.18,1.41-4.05
		c0-1.87-0.48-3.21-1.43-4.04c-0.95-0.83-2.51-1.24-4.67-1.24H914.97z"/>
	<path class="st0" d="M945.91,51.62l9.39-21.67h10.65l8.76,21.67h-9.1l-0.72-2.12h-9.21l-0.78,2.12H945.91z M957.66,44.15h5.38
		l-2.61-7.62L957.66,44.15z"/>
	<path class="st0" d="M974.71,51.62V29.96h9.93L993,42.44V29.96h8.13v21.67h-9.42l-9.1-12.69v12.69H974.71z"/>
	<path class="st0" d="M1004.38,51.62V29.96h8.39v21.67H1004.38z"/>
	<path class="st0" d="M1015.99,51.62V29.96h12.45l3.66,13.2l3.96-13.2h12.28v21.67h-7.78V34.7l-5.16,16.92h-6.55l-5.1-16.92v16.92
		H1015.99z"/>
	<path class="st0" d="M1048.33,51.62l9.39-21.67h10.65l8.76,21.67h-9.1l-0.72-2.12h-9.21l-0.78,2.12H1048.33z M1060.07,44.15h5.38
		l-2.61-7.62L1060.07,44.15z"/>
	<path class="st0" d="M1081.45,51.62V35.45h-7.84v-5.49h24.1v5.49h-7.87v16.17H1081.45z"/>
	<path class="st0" d="M1098.65,51.62V29.96h8.39v21.67H1098.65z"/>
	<path class="st0" d="M1109,40.8c0-3.77,1.23-6.61,3.68-8.53c2.45-1.92,6.08-2.88,10.9-2.88s8.45,0.96,10.9,2.88
		c2.45,1.92,3.68,4.76,3.68,8.53c0,3.76-1.23,6.6-3.68,8.52c-2.45,1.92-6.08,2.88-10.9,2.88s-8.45-0.96-10.9-2.88
		C1110.22,47.39,1109,44.56,1109,40.8z M1118.02,40.8c0,1.88,0.48,3.33,1.43,4.32c0.95,1,2.33,1.49,4.12,1.49s3.17-0.5,4.12-1.49
		c0.95-1,1.43-2.44,1.43-4.32c0-1.89-0.48-3.34-1.43-4.35c-0.95-1.01-2.33-1.51-4.12-1.51s-3.17,0.5-4.12,1.51
		C1118.5,37.45,1118.02,38.9,1118.02,40.8z"/>
	<path class="st0" d="M1140.1,51.62V29.96h9.93l8.36,12.48V29.96h8.13v21.67h-9.42l-9.1-12.69v12.69H1140.1z"/>
</g>
</svg>
