<?xml version="1.0" encoding="utf-8"?>
<!-- Generator: Adobe Illustrator 28.3.0, SVG Export Plug-In . SVG Version: 6.00 Build 0)  -->
<svg version="1.1" id="Layer_1" xmlns="http://www.w3.org/2000/svg" xmlns:xlink="http://www.w3.org/1999/xlink" x="0px" y="0px"
	 viewBox="0 0 678 213" style="enable-background:new 0 0 678 213;" xml:space="preserve">
<style type="text/css">
	.st0{fill:#CDCABE;}
</style>
<path class="st0" d="M-0.09,112.97l12.6-29.07h14.29l11.75,29.07h-12.2l-0.96-2.85H13.02l-1.04,2.85H-0.09z M15.67,102.95h7.21
	l-3.5-10.22L15.67,102.95z"/>
<path class="st0" d="M60.7,83.9c2.53,0,4.55,0.12,6.07,0.36c1.52,0.24,2.71,0.62,3.56,1.13c1.09,0.64,1.92,1.5,2.49,2.58
	c0.57,1.08,0.85,2.33,0.85,3.74c0,1.72-0.43,3.23-1.28,4.53s-2.02,2.24-3.52,2.82c1.28,0.54,2.18,1.2,2.7,1.99
	c0.52,0.79,0.82,2.19,0.91,4.2c0.01,0.22,0.03,0.53,0.04,0.92c0.18,3.8,0.69,5.91,1.53,6.33v0.45H61.55
	c-0.38-0.62-0.59-1.81-0.63-3.58c-0.03-1.03-0.07-1.83-0.14-2.4c-0.12-1.06-0.48-1.81-1.07-2.24c-0.6-0.43-1.59-0.65-3-0.65H50v8.86
	H38.58V83.9H60.7z M50,96.46h6.56c1.72,0,2.92-0.2,3.63-0.61c0.7-0.41,1.05-1.09,1.05-2.04c0-0.94-0.33-1.6-0.99-1.97
	c-0.66-0.37-1.98-0.56-3.96-0.56H50V96.46z"/>
<path class="st0" d="M100.69,96.11c-0.18-1.79-0.82-3.16-1.91-4.11c-1.09-0.94-2.58-1.42-4.46-1.42c-2.41,0-4.25,0.67-5.53,2.02
	s-1.92,3.29-1.92,5.84c0,2.53,0.64,4.46,1.92,5.8c1.28,1.34,3.12,2,5.53,2c1.74,0,3.15-0.4,4.22-1.19c1.07-0.79,1.77-1.97,2.11-3.53
	h12.99c-0.59,4.02-2.52,7.06-5.79,9.12c-3.27,2.06-7.78,3.09-13.53,3.09c-6.46,0-11.33-1.29-14.62-3.86
	c-3.29-2.58-4.93-6.38-4.93-11.43c0-5.06,1.64-8.87,4.93-11.45c3.29-2.58,8.16-3.86,14.62-3.86c6.03,0,10.69,1.12,13.99,3.35
	c3.3,2.23,5.05,5.44,5.25,9.62H100.69z"/>
<path class="st0" d="M115.81,112.97V83.9h11.26v10.06h12.85V83.9h11.26v29.07h-11.26v-11.75h-12.85v11.75H115.81z"/>
<path class="st0" d="M155.54,112.97V83.9h11.26v29.07H155.54z"/>
<path class="st0" d="M178.53,112.97v-21.7h-10.51V83.9h32.33v7.37h-10.55v21.7H178.53z"/>
<path class="st0" d="M201.59,112.97V83.9h30.79v7.13h-19.53v3.46h15.82v7.17h-15.82v3.81h20.5v7.49H201.59z"/>
<path class="st0" d="M259.18,96.11c-0.18-1.79-0.82-3.16-1.91-4.11c-1.09-0.94-2.58-1.42-4.46-1.42c-2.41,0-4.25,0.67-5.53,2.02
	s-1.92,3.29-1.92,5.84c0,2.53,0.64,4.46,1.92,5.8c1.28,1.34,3.12,2,5.53,2c1.74,0,3.15-0.4,4.22-1.19c1.07-0.79,1.77-1.97,2.11-3.53
	h12.99c-0.59,4.02-2.52,7.06-5.79,9.12c-3.27,2.06-7.78,3.09-13.53,3.09c-6.46,0-11.33-1.29-14.62-3.86
	c-3.29-2.58-4.93-6.38-4.93-11.43c0-5.06,1.64-8.87,4.93-11.45c3.29-2.58,8.16-3.86,14.62-3.86c6.03,0,10.69,1.12,13.99,3.35
	c3.3,2.23,5.05,5.44,5.25,9.62H259.18z"/>
<path class="st0" d="M281.72,112.97v-21.7H271.2V83.9h32.33v7.37h-10.55v21.7H281.72z"/>
<path class="st0" d="M316.04,83.9v14.21c0,2.92,0.44,4.95,1.33,6.08c0.88,1.13,2.41,1.7,4.59,1.7s3.7-0.56,4.57-1.69
	s1.31-3.16,1.31-6.09V83.9h11.28v15.27c0,5.04-1.37,8.74-4.12,11.08c-2.75,2.35-7.09,3.52-13.04,3.52c-5.91,0-10.25-1.18-13.02-3.54
	c-2.77-2.36-4.16-6.05-4.16-11.06V83.9H316.04z"/>
<path class="st0" d="M365.59,83.9c2.53,0,4.55,0.12,6.07,0.36c1.52,0.24,2.71,0.62,3.56,1.13c1.09,0.64,1.92,1.5,2.49,2.58
	c0.57,1.08,0.85,2.33,0.85,3.74c0,1.72-0.43,3.23-1.28,4.53s-2.02,2.24-3.52,2.82c1.28,0.54,2.18,1.2,2.7,1.99
	c0.52,0.79,0.82,2.19,0.91,4.2c0.01,0.22,0.03,0.53,0.04,0.92c0.18,3.8,0.69,5.91,1.53,6.33v0.45h-12.52
	c-0.38-0.62-0.59-1.81-0.63-3.58c-0.03-1.03-0.07-1.83-0.14-2.4c-0.12-1.06-0.48-1.81-1.07-2.24c-0.6-0.43-1.59-0.65-3-0.65h-6.72
	v8.86h-11.42V83.9H365.59z M354.88,96.46h6.56c1.72,0,2.92-0.2,3.63-0.61c0.7-0.41,1.05-1.09,1.05-2.04c0-0.94-0.33-1.6-0.99-1.97
	c-0.66-0.37-1.98-0.56-3.96-0.56h-6.29V96.46z"/>
<path class="st0" d="M381.35,112.97V83.9h30.79v7.13h-19.53v3.46h15.82v7.17h-15.82v3.81h20.5v7.49H381.35z"/>
<path class="st0" d="M415.87,107.11v-9.29h10.55v6.15c0,1.69-0.18,2.98-0.55,3.86c-0.37,0.88-0.99,1.67-1.87,2.35
	c-0.84,0.66-1.82,1.25-2.95,1.79c-1.13,0.54-2.41,1.01-3.85,1.41l-0.88-3.69c0.9-0.3,1.56-0.65,1.97-1.05
	c0.41-0.4,0.62-0.91,0.63-1.52H415.87z"/>
<path class="st0" d="M447.36,104.13l13.64-0.02c0.11,0.79,0.6,1.39,1.47,1.82c0.88,0.43,2.08,0.64,3.6,0.64
	c1.52,0,2.66-0.17,3.41-0.52c0.75-0.35,1.13-0.87,1.13-1.56c0-0.62-0.33-1.11-0.98-1.48c-0.66-0.37-1.66-0.64-3.03-0.82l-8.41-1.04
	c-3.49-0.42-6.11-1.36-7.87-2.81s-2.64-3.4-2.64-5.84c0-3.25,1.33-5.62,4-7.11c2.67-1.49,6.91-2.24,12.74-2.24
	c6.05,0,10.55,0.75,13.5,2.24c2.95,1.49,4.54,3.82,4.78,6.98H469.6c-0.14-0.92-0.7-1.61-1.65-2.07c-0.96-0.46-2.3-0.7-4.03-0.7
	c-1.26,0-2.25,0.17-2.97,0.52c-0.72,0.35-1.08,0.82-1.08,1.41c0,0.55,0.28,0.97,0.84,1.26c0.56,0.29,1.71,0.56,3.47,0.81l10.26,1.45
	c3.21,0.46,5.61,1.39,7.19,2.8s2.38,3.3,2.38,5.69c0,3.56-1.58,6.18-4.76,7.84c-3.17,1.66-8.17,2.5-14.99,2.5
	c-5.42,0-9.59-0.84-12.49-2.52C448.87,109.66,447.39,107.26,447.36,104.13z"/>
<path class="st0" d="M486.55,112.97V83.9h21.74c4.11,0,7.29,0.82,9.52,2.47c2.23,1.64,3.35,3.97,3.35,6.97
	c0,2.99-1.12,5.3-3.35,6.95c-2.23,1.64-5.41,2.47-9.52,2.47h-10.47v10.22H486.55z M503.98,90.15h-6.17v6.27h6.17
	c1.83,0,3.1-0.23,3.8-0.7c0.7-0.46,1.05-1.27,1.05-2.43c0-1.17-0.35-1.98-1.05-2.45C507.09,90.39,505.82,90.15,503.98,90.15z"/>
<path class="st0" d="M516.63,112.97l12.6-29.07h14.29l11.75,29.07h-12.2l-0.96-2.85h-12.36l-1.04,2.85H516.63z M532.39,102.95h7.21
	l-3.5-10.22L532.39,102.95z"/>
<path class="st0" d="M578.82,96.11c-0.18-1.79-0.82-3.16-1.91-4.11c-1.09-0.94-2.58-1.42-4.46-1.42c-2.41,0-4.25,0.67-5.53,2.02
	s-1.92,3.29-1.92,5.84c0,2.53,0.64,4.46,1.92,5.8c1.28,1.34,3.12,2,5.53,2c1.74,0,3.15-0.4,4.22-1.19c1.07-0.79,1.77-1.97,2.11-3.53
	h12.99c-0.59,4.02-2.52,7.06-5.79,9.12c-3.27,2.06-7.78,3.09-13.53,3.09c-6.46,0-11.33-1.29-14.62-3.86
	c-3.29-2.58-4.93-6.38-4.93-11.43c0-5.06,1.64-8.87,4.93-11.45c3.29-2.58,8.16-3.86,14.62-3.86c6.03,0,10.69,1.12,13.99,3.35
	c3.3,2.23,5.05,5.44,5.25,9.62H578.82z"/>
<path class="st0" d="M593.95,112.97V83.9h30.79v7.13h-19.53v3.46h15.82v7.17h-15.82v3.81h20.5v7.49H593.95z"/>
<path class="st0" d="M625.5,104.13l13.64-0.02c0.11,0.79,0.6,1.39,1.47,1.82c0.88,0.43,2.08,0.64,3.6,0.64
	c1.52,0,2.66-0.17,3.41-0.52c0.75-0.35,1.13-0.87,1.13-1.56c0-0.62-0.33-1.11-0.98-1.48c-0.66-0.37-1.66-0.64-3.03-0.82l-8.41-1.04
	c-3.49-0.42-6.11-1.36-7.87-2.81s-2.64-3.4-2.64-5.84c0-3.25,1.33-5.62,4-7.11c2.67-1.49,6.91-2.24,12.74-2.24
	c6.05,0,10.55,0.75,13.5,2.24c2.95,1.49,4.54,3.82,4.78,6.98h-13.09c-0.14-0.92-0.7-1.61-1.65-2.07c-0.96-0.46-2.3-0.7-4.03-0.7
	c-1.26,0-2.25,0.17-2.97,0.52c-0.72,0.35-1.08,0.82-1.08,1.41c0,0.55,0.28,0.97,0.84,1.26c0.56,0.29,1.71,0.56,3.47,0.81l10.26,1.45
	c3.21,0.46,5.61,1.39,7.19,2.8s2.38,3.3,2.38,5.69c0,3.56-1.58,6.18-4.76,7.84c-3.17,1.66-8.17,2.5-14.99,2.5
	c-5.42,0-9.59-0.84-12.49-2.52C627.01,109.66,625.54,107.26,625.5,104.13z"/>
<path class="st0" d="M663.86,107.23v-9.29h10.55v6.15c0,1.69-0.18,2.98-0.55,3.86c-0.37,0.88-0.99,1.67-1.87,2.35
	c-0.84,0.66-1.82,1.25-2.95,1.79c-1.13,0.54-2.41,1.01-3.85,1.41l-0.88-3.69c0.9-0.3,1.56-0.65,1.97-1.05
	c0.41-0.4,0.62-0.91,0.63-1.52H663.86z"/>
<path class="st0" d="M1.07,142.63v-22.07h23.38v5.42H9.62v2.62h12.01v5.45H9.62v2.89h15.56v5.68H1.07z"/>
<path class="st0" d="M26.37,142.63v-22.07h10.12L45,133.28v-12.71h8.28v22.07h-9.59l-9.27-12.92v12.92H26.37z"/>
<path class="st0" d="M62.57,142.63l-9.74-22.07h9.65l4.67,14.77l4.92-14.77h9.56L71.5,142.63H62.57z"/>
<path class="st0" d="M81.19,142.63v-22.07h8.55v22.07H81.19z"/>
<path class="st0" d="M109.82,120.57c1.92,0,3.46,0.09,4.61,0.28c1.15,0.18,2.05,0.47,2.7,0.86c0.83,0.49,1.46,1.14,1.89,1.96
	s0.65,1.77,0.65,2.84c0,1.3-0.32,2.45-0.97,3.44s-1.54,1.7-2.67,2.14c0.98,0.41,1.66,0.91,2.05,1.52c0.39,0.6,0.62,1.66,0.69,3.19
	c0.01,0.17,0.02,0.4,0.03,0.7c0.14,2.88,0.53,4.49,1.16,4.8v0.34h-9.5c-0.29-0.47-0.45-1.37-0.48-2.71
	c-0.02-0.79-0.05-1.39-0.1-1.82c-0.09-0.81-0.36-1.37-0.81-1.7c-0.45-0.33-1.21-0.49-2.28-0.49h-5.1v6.73h-8.67v-22.07H109.82z
	 M101.68,130.1h4.98c1.3,0,2.22-0.15,2.75-0.46c0.53-0.31,0.8-0.82,0.8-1.55c0-0.72-0.25-1.22-0.75-1.5
	c-0.5-0.28-1.5-0.42-3.01-0.42h-4.77V130.1z"/>
<path class="st0" d="M120.49,131.61c0-3.84,1.25-6.74,3.75-8.69s6.2-2.93,11.1-2.93c4.9,0,8.6,0.98,11.1,2.93
	c2.5,1.96,3.75,4.85,3.75,8.69c0,3.83-1.25,6.72-3.75,8.68c-2.5,1.96-6.2,2.93-11.1,2.93c-4.9,0-8.6-0.98-11.1-2.93
	S120.49,135.44,120.49,131.61z M129.68,131.61c0,1.92,0.48,3.39,1.45,4.4c0.97,1.02,2.37,1.52,4.2,1.52s3.23-0.51,4.2-1.52
	c0.97-1.01,1.46-2.48,1.46-4.4c0-1.93-0.49-3.41-1.46-4.43c-0.97-1.02-2.37-1.54-4.2-1.54s-3.23,0.51-4.2,1.54
	C130.17,128.2,129.68,129.68,129.68,131.61z"/>
<path class="st0" d="M152.18,142.63v-22.07h10.12l8.52,12.71v-12.71h8.28v22.07h-9.59l-9.27-12.92v12.92H152.18z"/>
<path class="st0" d="M182.4,142.63v-22.07h12.68l3.73,13.44l4.03-13.44h12.5v22.07h-7.92V125.4l-5.25,17.23h-6.67l-5.19-17.23v17.23
	H182.4z"/>
<path class="st0" d="M218.64,142.63v-22.07h23.38v5.42h-14.83v2.62h12.01v5.45h-12.01v2.89h15.56v5.68H218.64z"/>
<path class="st0" d="M243.93,142.63v-22.07h10.12l8.52,12.71v-12.71h8.28v22.07h-9.59l-9.27-12.92v12.92H243.93z"/>
<path class="st0" d="M279.78,142.63v-16.47h-7.98v-5.6h24.54v5.6h-8.01v16.47H279.78z"/>
<path class="st0" d="M295.92,135.92l10.36-0.02c0.08,0.6,0.45,1.06,1.12,1.38c0.67,0.32,1.58,0.48,2.73,0.48
	c1.15,0,2.02-0.13,2.59-0.4c0.57-0.26,0.86-0.66,0.86-1.19c0-0.47-0.25-0.84-0.75-1.13s-1.26-0.49-2.3-0.62l-6.39-0.79
	c-2.65-0.32-4.64-1.03-5.98-2.13s-2.01-2.58-2.01-4.43c0-2.47,1.01-4.27,3.04-5.4c2.02-1.13,5.25-1.7,9.68-1.7
	c4.6,0,8.01,0.57,10.25,1.7c2.24,1.13,3.45,2.9,3.62,5.3h-9.94c-0.11-0.7-0.53-1.22-1.25-1.57c-0.73-0.35-1.75-0.53-3.06-0.53
	c-0.96,0-1.71,0.13-2.25,0.39s-0.82,0.62-0.82,1.07c0,0.42,0.21,0.74,0.63,0.96s1.3,0.42,2.63,0.61l7.79,1.11
	c2.44,0.35,4.26,1.06,5.46,2.12c1.2,1.07,1.81,2.51,1.81,4.32c0,2.71-1.2,4.69-3.61,5.95s-6.2,1.89-11.38,1.89
	c-4.12,0-7.28-0.64-9.48-1.91C297.07,140.12,295.95,138.3,295.92,135.92z"/>
<path class="st0" d="M325.31,138.68v-7.06h8.01v4.67c0,1.28-0.14,2.26-0.42,2.93s-0.75,1.27-1.42,1.78
	c-0.64,0.5-1.38,0.95-2.24,1.36s-1.83,0.77-2.92,1.07l-0.67-2.8c0.69-0.23,1.18-0.49,1.49-0.8c0.31-0.3,0.47-0.69,0.48-1.16H325.31z
	"/>
<path class="st0" d="M348.54,142.63l9.56-22.07h10.85l8.92,22.07h-9.27l-0.73-2.16h-9.38l-0.79,2.16H348.54z M360.51,135.02h5.48
	l-2.66-7.76L360.51,135.02z"/>
<path class="st0" d="M377.87,142.63v-22.07h10.12l8.52,12.71v-12.71h8.28v22.07h-9.59l-9.27-12.92v12.92H377.87z"/>
<path class="st0" d="M408.09,120.54h14.14c4.58,0,8.06,0.94,10.46,2.83s3.6,4.63,3.6,8.24c0,3.6-1.19,6.34-3.58,8.21
	c-2.39,1.88-5.88,2.81-10.47,2.81h-14.14V120.54z M416.64,126.01v10.76h4.25c2.22,0,3.81-0.42,4.77-1.26
	c0.96-0.84,1.44-2.22,1.44-4.13c0-1.9-0.49-3.27-1.46-4.11c-0.97-0.84-2.55-1.26-4.75-1.26H416.64z"/>
<path class="st0" d="M451.45,142.63v-22.07h16.5c3.12,0,5.53,0.62,7.23,1.87c1.7,1.25,2.54,3.01,2.54,5.29
	c0,2.27-0.85,4.03-2.54,5.27c-1.7,1.25-4.11,1.87-7.23,1.87H460v7.76H451.45z M464.69,125.31H460v4.76h4.68
	c1.39,0,2.35-0.18,2.89-0.53s0.8-0.97,0.8-1.84c0-0.88-0.27-1.5-0.8-1.86C467.04,125.49,466.08,125.31,464.69,125.31z"/>
<path class="st0" d="M495.91,120.57c1.92,0,3.46,0.09,4.61,0.28c1.15,0.18,2.05,0.47,2.7,0.86c0.83,0.49,1.46,1.14,1.89,1.96
	s0.65,1.77,0.65,2.84c0,1.3-0.32,2.45-0.97,3.44s-1.54,1.7-2.67,2.14c0.98,0.41,1.66,0.91,2.05,1.52c0.39,0.6,0.62,1.66,0.69,3.19
	c0.01,0.17,0.02,0.4,0.03,0.7c0.14,2.88,0.53,4.49,1.16,4.8v0.34h-9.5c-0.29-0.47-0.45-1.37-0.48-2.71
	c-0.02-0.79-0.05-1.39-0.1-1.82c-0.09-0.81-0.36-1.37-0.81-1.7c-0.45-0.33-1.21-0.49-2.28-0.49h-5.1v6.73h-8.67v-22.07H495.91z
	 M487.78,130.1h4.98c1.3,0,2.22-0.15,2.75-0.46c0.53-0.31,0.8-0.82,0.8-1.55c0-0.72-0.25-1.22-0.75-1.5
	c-0.5-0.28-1.5-0.42-3.01-0.42h-4.77V130.1z"/>
<path class="st0" d="M506.59,131.61c0-3.84,1.25-6.74,3.75-8.69c2.5-1.96,6.2-2.93,11.1-2.93c4.9,0,8.6,0.98,11.1,2.93
	c2.5,1.96,3.75,4.85,3.75,8.69c0,3.83-1.25,6.72-3.75,8.68c-2.5,1.96-6.2,2.93-11.1,2.93c-4.9,0-8.6-0.98-11.1-2.93
	C507.83,138.33,506.59,135.44,506.59,131.61z M515.78,131.61c0,1.92,0.48,3.39,1.45,4.4c0.97,1.02,2.37,1.52,4.2,1.52
	s3.23-0.51,4.2-1.52c0.97-1.01,1.46-2.48,1.46-4.4c0-1.93-0.49-3.41-1.46-4.43c-0.97-1.02-2.37-1.54-4.2-1.54s-3.23,0.51-4.2,1.54
	C516.26,128.2,515.78,129.68,515.78,131.61z"/>
<path class="st0" d="M538.3,120.54h14.14c4.58,0,8.06,0.94,10.46,2.83s3.6,4.63,3.6,8.24c0,3.6-1.19,6.34-3.58,8.21
	c-2.39,1.88-5.88,2.81-10.47,2.81H538.3V120.54z M546.85,126.01v10.76h4.25c2.22,0,3.81-0.42,4.77-1.26
	c0.96-0.84,1.44-2.22,1.44-4.13c0-1.9-0.49-3.27-1.46-4.11c-0.97-0.84-2.55-1.26-4.75-1.26H546.85z"/>
<path class="st0" d="M577.13,120.57v10.79c0,2.22,0.33,3.76,1.01,4.62c0.67,0.86,1.83,1.29,3.48,1.29c1.65,0,2.81-0.43,3.47-1.28
	c0.66-0.86,0.99-2.4,0.99-4.62v-10.79h8.56v11.59c0,3.83-1.04,6.63-3.13,8.41c-2.08,1.78-5.38,2.67-9.9,2.67
	c-4.49,0-7.78-0.89-9.88-2.69c-2.1-1.79-3.16-4.59-3.16-8.4v-11.59H577.13z"/>
<path class="st0" d="M616.35,129.83c-0.14-1.36-0.62-2.4-1.45-3.12c-0.83-0.71-1.95-1.07-3.39-1.07c-1.83,0-3.23,0.51-4.2,1.54
	c-0.97,1.03-1.45,2.5-1.45,4.43c0,1.92,0.48,3.39,1.45,4.4c0.97,1.02,2.37,1.52,4.2,1.52c1.32,0,2.39-0.3,3.2-0.9
	c0.81-0.6,1.35-1.49,1.6-2.68h9.86c-0.45,3.05-1.91,5.36-4.39,6.92c-2.48,1.56-5.91,2.34-10.27,2.34c-4.9,0-8.6-0.98-11.1-2.93
	s-3.75-4.85-3.75-8.68c0-3.84,1.25-6.74,3.75-8.69s6.2-2.93,11.1-2.93c4.58,0,8.12,0.85,10.62,2.54c2.51,1.7,3.83,4.13,3.98,7.3
	H616.35z"/>
<path class="st0" d="M633.46,142.63v-16.47h-7.98v-5.6h24.54v5.6h-8.01v16.47H633.46z"/>
<path class="st0" d="M649.6,135.92l10.36-0.02c0.08,0.6,0.45,1.06,1.12,1.38c0.67,0.32,1.58,0.48,2.73,0.48
	c1.15,0,2.02-0.13,2.59-0.4c0.57-0.26,0.86-0.66,0.86-1.19c0-0.47-0.25-0.84-0.75-1.13s-1.26-0.49-2.3-0.62l-6.39-0.79
	c-2.65-0.32-4.64-1.03-5.98-2.13s-2.01-2.58-2.01-4.43c0-2.47,1.01-4.27,3.04-5.4c2.02-1.13,5.25-1.7,9.68-1.7
	c4.6,0,8.01,0.57,10.25,1.7c2.24,1.13,3.45,2.9,3.62,5.3h-9.94c-0.11-0.7-0.53-1.22-1.25-1.57c-0.73-0.35-1.75-0.53-3.06-0.53
	c-0.96,0-1.71,0.13-2.25,0.39s-0.82,0.62-0.82,1.07c0,0.42,0.21,0.74,0.63,0.96s1.3,0.42,2.63,0.61l7.79,1.11
	c2.44,0.35,4.26,1.06,5.46,2.12c1.2,1.07,1.81,2.51,1.81,4.32c0,2.71-1.2,4.69-3.61,5.95s-6.2,1.89-11.38,1.89
	c-4.12,0-7.28-0.64-9.48-1.91C650.74,140.12,649.63,138.3,649.6,135.92z"/>
<path class="st0" d="M7.36,167.17V154.2H1.07v-4.41h19.34v4.41h-6.31v12.98H7.36z"/>
<path class="st0" d="M21.15,167.17v-17.39h6.74v6.02h7.69v-6.02h6.74v17.39h-6.74v-7.03h-7.69v7.03H21.15z"/>
<path class="st0" d="M58.16,149.79c1.51,0,2.72,0.07,3.63,0.22c0.91,0.14,1.62,0.37,2.13,0.68c0.65,0.38,1.15,0.9,1.49,1.55
	s0.51,1.39,0.51,2.24c0,1.03-0.25,1.93-0.76,2.71c-0.51,0.78-1.21,1.34-2.1,1.69c0.77,0.32,1.31,0.72,1.62,1.19
	c0.31,0.47,0.49,1.31,0.55,2.51c0.01,0.13,0.02,0.32,0.02,0.55c0.11,2.27,0.42,3.54,0.92,3.79v0.27h-7.49
	c-0.23-0.37-0.35-1.08-0.38-2.14c-0.02-0.62-0.04-1.1-0.08-1.43c-0.07-0.63-0.28-1.08-0.64-1.34c-0.36-0.26-0.95-0.39-1.79-0.39
	h-4.02v5.3h-6.83v-17.39H58.16z M51.75,157.3h3.93c1.03,0,1.75-0.12,2.17-0.37c0.42-0.24,0.63-0.65,0.63-1.22
	c0-0.56-0.2-0.96-0.59-1.18c-0.4-0.22-1.19-0.33-2.37-0.33h-3.76V157.3z"/>
<path class="st0" d="M66.57,158.49c0-3.03,0.98-5.31,2.95-6.85c1.97-1.54,4.88-2.31,8.75-2.31c3.86,0,6.78,0.77,8.75,2.31
	c1.97,1.54,2.95,3.82,2.95,6.85c0,3.02-0.98,5.29-2.95,6.84c-1.97,1.54-4.88,2.31-8.75,2.31c-3.86,0-6.78-0.77-8.75-2.31
	C67.55,163.78,66.57,161.5,66.57,158.49z M73.81,158.49c0,1.51,0.38,2.67,1.15,3.47c0.76,0.8,1.87,1.2,3.31,1.2
	c1.44,0,2.54-0.4,3.31-1.2c0.76-0.8,1.15-1.96,1.15-3.47c0-1.52-0.38-2.69-1.15-3.49c-0.76-0.81-1.87-1.21-3.31-1.21
	c-1.44,0-2.55,0.4-3.31,1.21C74.19,155.8,73.81,156.97,73.81,158.49z"/>
<path class="st0" d="M98.29,149.79v8.5c0,1.75,0.26,2.96,0.79,3.64c0.53,0.68,1.44,1.02,2.75,1.02s2.21-0.34,2.73-1.01
	s0.78-1.89,0.78-3.64v-8.5h6.75v9.13c0,3.02-0.82,5.23-2.46,6.63c-1.64,1.4-4.24,2.11-7.8,2.11c-3.53,0-6.13-0.71-7.79-2.12
	s-2.49-3.62-2.49-6.62v-9.13H98.29z"/>
<path class="st0" d="M132.99,165.63c-0.78,0.69-1.79,1.2-3.02,1.52c-1.23,0.32-2.76,0.48-4.59,0.48c-3.86,0-6.78-0.77-8.75-2.31
	c-1.97-1.54-2.95-3.82-2.95-6.84c0-3.03,0.98-5.31,2.95-6.85c1.97-1.54,4.88-2.31,8.75-2.31c3.25,0,5.86,0.55,7.82,1.66
	c1.96,1.1,3.07,2.64,3.33,4.61h-7.38c-0.36-0.71-0.84-1.23-1.43-1.57c-0.59-0.35-1.31-0.52-2.15-0.52c-1.4,0-2.53,0.45-3.37,1.35
	c-0.85,0.9-1.27,2.11-1.27,3.63c0,1.54,0.42,2.73,1.25,3.58c0.83,0.85,2,1.28,3.5,1.28c1.12,0,2.05-0.21,2.8-0.61
	c0.74-0.41,1.2-0.96,1.36-1.67h-2.8v-3.76h9.71v9.88h-3.03L132.99,165.63z"/>
<path class="st0" d="M138.79,167.17v-17.39h6.74v6.02h7.69v-6.02h6.74v17.39h-6.74v-7.03h-7.69v7.03H138.79z"/>
<path class="st0" d="M171.78,161.88l8.16-0.01c0.06,0.47,0.36,0.83,0.88,1.09c0.52,0.25,1.24,0.38,2.15,0.38s1.59-0.11,2.04-0.31
	c0.45-0.21,0.68-0.52,0.68-0.93c0-0.37-0.2-0.67-0.59-0.89c-0.39-0.22-1-0.38-1.81-0.49l-5.03-0.62c-2.08-0.25-3.65-0.81-4.71-1.68
	c-1.05-0.87-1.58-2.04-1.58-3.49c0-1.94,0.8-3.36,2.39-4.26c1.59-0.89,4.14-1.34,7.62-1.34c3.62,0,6.31,0.45,8.08,1.34
	c1.76,0.89,2.71,2.29,2.86,4.17h-7.83c-0.09-0.55-0.42-0.96-0.99-1.24c-0.57-0.28-1.38-0.42-2.41-0.42c-0.75,0-1.34,0.1-1.78,0.31
	c-0.43,0.21-0.65,0.49-0.65,0.84c0,0.33,0.17,0.58,0.5,0.75c0.33,0.17,1.03,0.33,2.08,0.48l6.14,0.87c1.92,0.28,3.35,0.83,4.3,1.68
	c0.95,0.84,1.42,1.98,1.42,3.4c0,2.13-0.95,3.7-2.84,4.69c-1.9,1-4.89,1.49-8.97,1.49c-3.24,0-5.73-0.5-7.47-1.51
	C172.69,165.2,171.81,163.76,171.78,161.88z"/>
<path class="st0" d="M199.66,167.17V154.2h-6.29v-4.41h19.34v4.41h-6.31v12.98H199.66z"/>
<path class="st0" d="M213.46,167.17v-17.39h6.74v17.39H213.46z"/>
<path class="st0" d="M222.78,167.17v-17.39h6.74v12.61h10.62v4.77H222.78z"/>
<path class="st0" d="M241.05,167.17v-17.39h6.74v12.61h10.62v4.77H241.05z"/>
<path class="st0" d="M269.63,167.17v-17.39h6.74v17.39H269.63z"/>
<path class="st0" d="M278.95,167.17v-17.39h9.99l2.94,10.59l3.17-10.59h9.85v17.39h-6.24V153.6l-4.14,13.58h-5.25l-4.09-13.58v13.58
	H278.95z"/>
<path class="st0" d="M304.9,167.17l7.54-17.39h8.55l7.03,17.39h-7.3l-0.58-1.71h-7.39l-0.62,1.71H304.9z M314.33,161.18h4.31
	l-2.09-6.11L314.33,161.18z"/>
<path class="st0" d="M345.9,165.63c-0.78,0.69-1.79,1.2-3.02,1.52c-1.23,0.32-2.76,0.48-4.59,0.48c-3.86,0-6.78-0.77-8.75-2.31
	c-1.97-1.54-2.95-3.82-2.95-6.84c0-3.03,0.98-5.31,2.95-6.85c1.97-1.54,4.88-2.31,8.75-2.31c3.25,0,5.86,0.55,7.82,1.66
	c1.96,1.1,3.07,2.64,3.33,4.61h-7.38c-0.36-0.71-0.84-1.23-1.43-1.57c-0.59-0.35-1.31-0.52-2.15-0.52c-1.4,0-2.53,0.45-3.37,1.35
	c-0.85,0.9-1.27,2.11-1.27,3.63c0,1.54,0.42,2.73,1.25,3.58c0.83,0.85,2,1.28,3.5,1.28c1.12,0,2.05-0.21,2.8-0.61
	c0.74-0.41,1.2-0.96,1.36-1.67h-2.8v-3.76h9.71v9.88h-3.03L345.9,165.63z"/>
<path class="st0" d="M351.7,167.17v-17.39h18.42v4.27h-11.69v2.07h9.46v4.29h-9.46v2.28h12.26v4.48H351.7z"/>
<path class="st0" d="M384.9,149.79c1.51,0,2.72,0.07,3.63,0.22c0.91,0.14,1.62,0.37,2.13,0.68c0.65,0.38,1.15,0.9,1.49,1.55
	s0.51,1.39,0.51,2.24c0,1.03-0.25,1.93-0.76,2.71c-0.51,0.78-1.21,1.34-2.1,1.69c0.77,0.32,1.31,0.72,1.62,1.19
	c0.31,0.47,0.49,1.31,0.55,2.51c0.01,0.13,0.02,0.32,0.02,0.55c0.11,2.27,0.42,3.54,0.92,3.79v0.27h-7.49
	c-0.23-0.37-0.35-1.08-0.38-2.14c-0.02-0.62-0.04-1.1-0.08-1.43c-0.07-0.63-0.28-1.08-0.64-1.34c-0.36-0.26-0.95-0.39-1.79-0.39
	h-4.02v5.3h-6.83v-17.39H384.9z M378.49,157.3h3.93c1.03,0,1.75-0.12,2.17-0.37c0.42-0.24,0.63-0.65,0.63-1.22
	c0-0.56-0.2-0.96-0.59-1.18c-0.4-0.22-1.19-0.33-2.37-0.33h-3.76V157.3z"/>
<path class="st0" d="M399.01,167.17v-4.91l-7.63-12.47h7.92l3.13,7.16l3.33-7.16h7.75l-7.75,12.47v4.91H399.01z"/>
<path class="st0" d="M420.88,167.17l7.54-17.39h8.55l7.03,17.39h-7.3l-0.58-1.71h-7.39l-0.62,1.71H420.88z M430.31,161.18h4.31
	l-2.09-6.11L430.31,161.18z"/>
<path class="st0" d="M443.99,167.17v-17.39h7.97l6.71,10.02v-10.02h6.52v17.39h-7.56l-7.3-10.18v10.18H443.99z"/>
<path class="st0" d="M467.8,149.76h11.14c3.61,0,6.35,0.74,8.24,2.23c1.89,1.49,2.83,3.65,2.83,6.5c0,2.84-0.94,4.99-2.82,6.47
	c-1.88,1.48-4.63,2.22-8.25,2.22H467.8V149.76z M474.54,154.08v8.47h3.35c1.75,0,3-0.33,3.76-0.99c0.76-0.66,1.13-1.75,1.13-3.25
	c0-1.5-0.38-2.58-1.15-3.24c-0.76-0.66-2.01-0.99-3.74-0.99H474.54z"/>
<path class="st0" d="M499.37,167.17l7.54-17.39h8.55l7.03,17.39h-7.3l-0.58-1.71h-7.39l-0.62,1.71H499.37z M508.79,161.18h4.31
	l-2.09-6.11L508.79,161.18z"/>
<path class="st0" d="M522.47,167.17v-17.39h7.97l6.71,10.02v-10.02h6.52v17.39h-7.56l-7.3-10.18v10.18H522.47z"/>
<path class="st0" d="M546.29,167.17v-17.39h6.74v17.39H546.29z"/>
<path class="st0" d="M555.6,167.17v-17.39h9.99l2.94,10.59l3.17-10.59h9.85v17.39h-6.24V153.6l-4.14,13.58h-5.25l-4.09-13.58v13.58
	H555.6z"/>
<path class="st0" d="M581.56,167.17l7.54-17.39h8.55l7.03,17.39h-7.3l-0.58-1.71h-7.39l-0.62,1.71H581.56z M590.98,161.18h4.31
	l-2.09-6.11L590.98,161.18z"/>
<path class="st0" d="M608.14,167.17V154.2h-6.29v-4.41h19.34v4.41h-6.31v12.98H608.14z"/>
<path class="st0" d="M621.94,167.17v-17.39h6.74v17.39H621.94z"/>
<path class="st0" d="M630.25,158.49c0-3.03,0.98-5.31,2.95-6.85c1.97-1.54,4.88-2.31,8.75-2.31c3.86,0,6.78,0.77,8.75,2.31
	c1.97,1.54,2.95,3.82,2.95,6.85c0,3.02-0.98,5.29-2.95,6.84c-1.97,1.54-4.88,2.31-8.75,2.31c-3.86,0-6.78-0.77-8.75-2.31
	C631.23,163.78,630.25,161.5,630.25,158.49z M637.49,158.49c0,1.51,0.38,2.67,1.15,3.47c0.76,0.8,1.87,1.2,3.31,1.2
	c1.44,0,2.54-0.4,3.31-1.2c0.76-0.8,1.15-1.96,1.15-3.47c0-1.52-0.38-2.69-1.15-3.49c-0.76-0.81-1.87-1.21-3.31-1.21
	c-1.44,0-2.55,0.4-3.31,1.21C637.87,155.8,637.49,156.97,637.49,158.49z"/>
<path class="st0" d="M655.21,167.17v-17.39h7.97l6.71,10.02v-10.02h6.52v17.39h-7.56l-7.3-10.18v10.18H655.21z"/>
<path class="st0" d="M167.96,75.03l-12.83-29.07h12.71l6.15,19.46l6.49-19.46h12.6l-13.36,29.07H167.96z"/>
<path class="st0" d="M192.48,75.03V45.97h11.26v29.07H192.48z"/>
<path class="st0" d="M206.25,66.19l13.64-0.02c0.1,0.79,0.6,1.39,1.47,1.82s2.08,0.64,3.6,0.64c1.52,0,2.66-0.17,3.41-0.52
	c0.75-0.35,1.13-0.87,1.13-1.56c0-0.62-0.33-1.11-0.98-1.48c-0.66-0.37-1.66-0.64-3.03-0.82l-8.41-1.04
	c-3.49-0.42-6.11-1.36-7.87-2.81c-1.76-1.45-2.64-3.4-2.64-5.84c0-3.25,1.33-5.62,4-7.11c2.67-1.49,6.91-2.24,12.74-2.24
	c6.05,0,10.55,0.75,13.5,2.24c2.95,1.49,4.54,3.82,4.78,6.98h-13.09c-0.14-0.92-0.69-1.61-1.65-2.07c-0.96-0.46-2.3-0.7-4.03-0.7
	c-1.26,0-2.25,0.17-2.97,0.52c-0.72,0.35-1.08,0.82-1.08,1.41c0,0.55,0.28,0.97,0.83,1.26s1.71,0.56,3.47,0.81l10.26,1.45
	c3.21,0.46,5.61,1.39,7.19,2.8c1.58,1.41,2.38,3.3,2.38,5.69c0,3.56-1.59,6.18-4.76,7.84c-3.17,1.66-8.17,2.5-15,2.5
	c-5.42,0-9.59-0.84-12.49-2.52C207.76,71.72,206.29,69.32,206.25,66.19z"/>
<path class="st0" d="M256.7,45.97v14.21c0,2.92,0.44,4.95,1.33,6.08c0.88,1.13,2.41,1.7,4.59,1.7s3.7-0.56,4.57-1.69
	c0.87-1.13,1.31-3.16,1.31-6.09V45.97h11.28v15.27c0,5.04-1.37,8.74-4.12,11.08c-2.75,2.35-7.09,3.52-13.04,3.52
	c-5.91,0-10.25-1.18-13.02-3.54c-2.77-2.36-4.16-6.05-4.16-11.06V45.97H256.7z"/>
<path class="st0" d="M279.08,75.03l12.6-29.07h14.29l11.75,29.07h-12.2l-0.96-2.85h-12.36l-1.04,2.85H279.08z M294.84,65.01h7.21
	l-3.5-10.22L294.84,65.01z"/>
<path class="st0" d="M317.75,75.03V45.97h11.26v21.09h17.75v7.98H317.75z"/>
<path class="st0" d="M348.3,75.03V45.97h11.26v29.07H348.3z"/>
<path class="st0" d="M361.69,75.03v-6.45l17.04-15.33H362.7v-7.29h31.33v6.6l-16.94,14.82h16.37v7.64H361.69z"/>
<path class="st0" d="M396.19,75.03V45.97h11.26v29.07H396.19z"/>
<path class="st0" d="M411.73,75.03V45.97h13.32l11.22,16.74V45.97h10.91v29.07h-12.64l-12.2-17.02v17.02H411.73z"/>
<path class="st0" d="M482.12,72.46c-1.31,1.15-2.99,2-5.04,2.54c-2.05,0.54-4.61,0.81-7.67,0.81c-6.46,0-11.33-1.29-14.62-3.86
	c-3.29-2.58-4.93-6.38-4.93-11.43c0-5.06,1.64-8.87,4.93-11.45c3.29-2.58,8.16-3.86,14.62-3.86c5.44,0,9.79,0.92,13.07,2.77
	c3.27,1.85,5.13,4.42,5.56,7.7h-12.34c-0.6-1.18-1.4-2.06-2.39-2.63c-0.99-0.58-2.18-0.87-3.59-0.87c-2.34,0-4.22,0.75-5.64,2.26
	c-1.42,1.51-2.12,3.53-2.12,6.07c0,2.57,0.7,4.56,2.09,5.98c1.4,1.42,3.34,2.13,5.85,2.13c1.87,0,3.43-0.34,4.68-1.02
	c1.24-0.68,2-1.61,2.28-2.79h-4.68v-6.29h16.23v16.51h-5.07L482.12,72.46z"/>
</svg>
