<?xml version="1.0" encoding="utf-8"?>
<!-- Generator: Adobe Illustrator 28.3.0, SVG Export Plug-In . SVG Version: 6.00 Build 0)  -->
<svg version="1.1" id="Layer_1" xmlns="http://www.w3.org/2000/svg" xmlns:xlink="http://www.w3.org/1999/xlink" x="0px" y="0px"
	 viewBox="0 0 150 150" style="enable-background:new 0 0 150 150;" xml:space="preserve">
<style type="text/css">
	.st0{fill:#D62F27;}
	.st1{fill:#CDC9BD;}
</style>
<circle class="st0" cx="75" cy="75.45" r="72.95"/>
<path class="st1" d="M32.99,104.93c0,0,7.46,0.1,8.6,0l4.48-62.82c-1.93,0-8.87,0-8.87,0l0-2.19H56.6l16.47,43.36l4.43,12.27
	l21.43-55.58l9.45-0.05l4.61,65.02c2.09,0,8.4,0.11,8.4,0.11l0.22,2.09H94.46l0-2.19c0,0,8.02,0,9.22,0l-4.14-60.34L96.82,52
	l-21.46,55.12h-2.71L51.72,52.1l-3.47-9.83l-4.37,62.66c1.56,0,10.1,0,10.1,0l0,2.19H33L32.99,104.93z"/>
</svg>
