<?xml version="1.0" encoding="utf-8"?>
<!-- Generator: Adobe Illustrator 28.3.0, SVG Export Plug-In . SVG Version: 6.00 Build 0)  -->
<svg version="1.1" id="Layer_1" xmlns="http://www.w3.org/2000/svg" xmlns:xlink="http://www.w3.org/1999/xlink" x="0px" y="0px"
	 viewBox="0 0 678 213" style="enable-background:new 0 0 678 213;" xml:space="preserve">
<style type="text/css">
	.st0{fill:#CDC9BD;}
</style>
<path class="st0" d="M72.58,165.86c0,0,14.39,0.19,16.6,0L97.83,44.6c-3.73,0-17.12,0-17.12,0l0-4.24h37.42l31.79,83.69l8.55,23.68
	l41.36-107.28l18.24-0.09l8.89,125.49c4.04,0,16.21,0.21,16.21,0.21l0.43,4.03h-52.39l0-4.24c0,0,15.48,0,17.8,0l-7.99-116.45
	l-5.25,14.31L154.35,170.1h-5.22l-40.4-106.19l-6.7-18.98l-8.43,120.93c3.02,0,19.49,0,19.49,0l0,4.24h-40.5L72.58,165.86z"/>
<path class="st0" d="M228.37,165.86c0,0,12.66,0,15.25,0V83.11c-2.16,0-15.25,0-15.25,0v-4l31.39-0.26v13.39
	c2.51-3.33,5.03-6.04,7.58-8.15c2.54-2.1,5.1-3.74,7.67-4.9c2.57-1.16,5.18-1.94,7.82-2.35c2.64-0.41,5.31-0.61,8.02-0.61
	c4.29,0,8.32,0.61,12.08,1.84c3.76,1.23,7.03,3.14,9.8,5.74s4.95,5.96,6.54,10.07c1.58,4.11,2.38,9.02,2.38,14.73v49.14
	c0,1.57,0.09,7.67,0.09,7.67l15.95,0.43l5.68,4.24l-56.42,0.06v-4.24l18.11-0.17c0,0-0.05-6.42-0.05-7.99v-43.21
	c0-4.21-0.25-8.02-0.74-11.44c-0.5-3.42-1.52-6.34-3.07-8.75c-1.55-2.42-3.71-4.29-6.49-5.6c-2.77-1.32-6.44-1.98-10.99-1.98
	c-1.98,0-4.04,0.19-6.19,0.57c-2.15,0.38-4.26,0.96-6.34,1.74c-2.08,0.78-4.06,1.81-5.94,3.06c-1.88,1.25-3.55,2.76-5,4.52l0,69.19
	c4.48,0,0.16,0,0.16,0v4.24h-32.04V165.86z"/>
<path class="st0" d="M409.43,142.37c0,0,1.58,3.75,1.58,3.77c-3.15,6.59-5.72,10.26-9.39,13.7c-6.47,6.05-12.46,9.38-21.15,11.38
	c-1.23,0.28-2.49,0.57-3.75,0.72c-2.27,0.35-4.55,0.58-6.84,0.59c-11.01,0.03-24.25-5.07-32.18-14.59
	c-5.95-7.13-9.79-16.02-10.85-25.25c-1.91-16.76,2.96-34.96,15.66-46.06c8.26-7.22,19.42-10.97,30.37-10.4
	c7.34,0.38,14.66,2.69,20.56,7.07c10.08,7.49,15.85,21.64,13.66,34.08c-0.1,0.57-0.18,1.1-0.25,1.6h-64.17
	c-0.7,15.31,3.06,25.82,8.44,33.19c3.91,5.35,11.43,9.8,17.86,11.22c6.44,1.42,11.2,1.38,17.54-0.32c3.43-0.92,4.98-1.79,8.14-3.48
	c1.62-0.86,5.4-3.86,6.64-5.21C406.92,148.26,409.43,142.37,409.43,142.37z M389.21,114.59c0.46-5.72,0.26-11.33-0.43-15.01
	c-0.69-3.67-1.83-6.92-3.42-9.74c-1.58-2.83-3.09-5.21-5.63-6.87c-2.54-1.66-4.98-3.34-9.88-3.34c-4.27,0-6.87,1.24-9.74,2.69
	c-2.87,1.44-5.34,3.94-7.48,6.58c-2.15,2.64-3.91,5.84-5.3,9.6s-3.46,10.49-4.17,16.09H389.21z"/>
<path class="st0" d="M400.59,83.11l-4.97-4.24h34.64l25.79,58.84l5.43,12.65l30.46-67.05l-23.16-0.2v-4.24h34.46v4.24h-6.51
	l-39.89,87.92h-3.86L416.93,89.7c-0.59-1.38-2.98-6.49-2.98-6.49"/>
<path class="st0" d="M491.62,165.86c0,0,10.79,0,15.65,0V83.11c-1.97,0-4.04,0-4.04,0v-4.24h20.67v86.98c7.26,0,10.23,0,10.23,0
	l5.99,4.24h-48.5V165.86z"/>
<path class="st0" d="M604.76,144.43c0,12.72-11.32,28.01-39.39,28.01c-19.09,0-32.79-14.3-32.79-14.3s2.76-3.06,3.44-3.91
	c7.96,7.57,19.42,13.43,28.97,12.79c5.39-0.37,10.81-2.18,15.28-5.01c5.11-3.24,7.9-8.69,7.81-14.83
	c-0.1-7.01-6.91-11.49-16.77-14.59c-8.16-2.57-11.82-4.17-19.42-7.94c-8.03-3.99-16.2-11.14-16.41-21.45
	c-0.3-14.38,9.14-21.36,14.89-24.31c8.06-4.14,18.42-3.82,24.6-2.8c7.83,1.3,14.25,3.71,21.07,8.36c-0.17,0.87-1.85,2.69-2.2,3.57
	c-6-3.38-12.3-6.05-17.81-6.87c-5.82-0.87-12.57-0.7-17.43,1.66c-6.51,3.16-8.37,8.45-8.65,13.2c-0.29,4.91,2.93,11.5,9.2,14.18
	c7.46,3.19,12.19,3.8,22.35,7.23C598.78,123.25,604.76,133.92,604.76,144.43z"/>
<circle class="st0" cx="514.95" cy="53.85" r="13.48"/>
<rect x="182.37" y="40.37" class="st0" width="34.79" height="4.24"/>
</svg>
