<?xml version="1.0" encoding="utf-8"?>
<!-- Generator: Adobe Illustrator 28.3.0, SVG Export Plug-In . SVG Version: 6.00 Build 0)  -->
<svg version="1.1" id="Layer_1" xmlns="http://www.w3.org/2000/svg" xmlns:xlink="http://www.w3.org/1999/xlink" x="0px" y="0px"
	 viewBox="0 0 155.3 37.6" style="enable-background:new 0 0 155.3 37.6;" xml:space="preserve">
<style type="text/css">
	.st0{fill:#FFFFFF;}
	.st1{fill:#FFFFFF;stroke:#666667;stroke-width:0.5;stroke-miterlimit:10;}
</style>
<g>
	<path class="st0" d="M98.7,29c0,0,0.2,0.6,0.2,0.6c-0.5,1.3-1.5,3-2.6,4.2c-1.7,1.9-3.4,2.9-5.9,3.5c-0.4,0.1-0.7,0.2-1.1,0.2
		c-0.6,0.1-1.3,0.2-1.9,0.2c-3.1,0-6.9-1.4-9.2-4.2c-1.7-2-2.8-4.6-3.1-7.2c-0.5-4.8,0.8-10,4.5-13.1c2.4-2.1,5.4-3,8.5-2.8
		c2.1,0.1,4.3,0.6,6,1.9c2.9,2.1,4.5,6.2,3.9,9.7c0,0.2-0.1,0.3-0.1,0.5H79.7c-0.2,4.4,0.9,7.4,2.4,9.5c1.1,1.5,3.3,2.8,5.1,3.2
		c1.8,0.4,3.2,0.4,5-0.1c1-0.3,1.4-0.5,2.3-1c0.5-0.2,1.5-1.1,1.9-1.5C98,30.7,98.7,29,98.7,29z M92.9,21.1c0.1-1.6,0.1-3.2-0.1-4.3
		c-0.2-1-0.4-2-0.9-2.8c-0.5-0.8-0.9-1.4-1.6-2c-0.7-0.5-1.5-1.1-2.9-1.1c-1.2,0-2.1,0.3-2.9,0.8c-0.8,0.5-1.5,1.3-2.1,2
		c-0.6,0.8-1.1,1.7-1.5,2.8c-0.5,1.2-1,3-1.2,4.6H92.9z"/>
	<path class="st0" d="M122.1,36.3v0.7h13.8l-1.1-0.7c0,0-1.4,0-3.5,0V11h-15.7l0,0.7h7.5L113.8,32l-1.9-4.3L104.6,11h-9.9l0.8,0.7
		l4.2,0c0,0,1,2,1.1,2.4l10.3,23.2h1.1l11.6-25.6c0,0,2.2,0,2.8,0l0,24.7C125.2,36.3,122.1,36.3,122.1,36.3z"/>
	<path class="st0" d="M154.3,29.6c0,3.6-3.2,8-11.2,8c-5.4,0-8.9-4.5-8.9-4.5s0.4-0.4,0.6-0.6c2.3,2.2,5.5,3.9,8.2,3.6
		c2.1-0.2,3.1-0.6,4.4-1.4c1.5-0.9,2.2-2.5,2.2-4.2c0-2-2-3.3-4.8-4.2c-2.3-0.7-3.4-1.2-5.5-2.3c-2.3-1.1-4.6-3.2-4.7-6.1
		c-0.1-4.1,2.6-6.1,4.2-6.9c2.3-1.2,5.6-1.1,7.4-0.7c2.2,0.5,3.5,1.4,5.3,2.8c-0.1,0.1-0.2,0.4-0.3,0.5c-1.9-1.1-3.5-1.7-5.1-2
		c-1.7-0.2-3.6-0.2-5,0.5c-1.9,0.9-2.4,2.4-2.5,3.8c-0.1,1.4,0.8,3.3,2.6,4c2.1,0.9,3.4,1.4,6.3,2.3
		C152.5,23.9,154.3,26.6,154.3,29.6z"/>
	<circle class="st0" cx="128.7" cy="3.8" r="3.8"/>
	<path class="st0" d="M62.7,37l16.1,0l-1.3-0.7h-4.9c0,0,0-2.4,0-2.9v-14c0-1.6-0.2-3-0.7-4.2c-0.5-1.2-1.1-2.1-1.9-2.9
		c-0.8-0.7-1.7-1.3-2.8-1.6c-1.1-0.3-2.2-0.5-3.4-0.5c-0.8,0-1.5,0.1-2.3,0.2c-0.8,0.1-1.5,0.4-2.3,0.8c-0.7,0.3-1.4,0.9-2.1,1.5
		c-0.7,0.6-1.5,1.7-2.2,2.7V11L46,11l0,0.7c0,0,3.7,0,4.3,0v24.7c-0.7,0-4.6,0-4.7,0L43,0.6l-0.3,0v0h-9.9l0,0.7h4.5L26.1,30.6
		l-2.4-6.7L14.6,0.6H4.5l0,0.7c0,0,3.8,0,4.9,0L6.9,36.3c-0.6,0.1-5.9,0-5.9,0l0,0.6h6.5c0,0,0,0.3,0.1-0.6l2.4-35l1.9,5.4
		l11.5,30.2h0.9L36.1,6.6l2.1-5.4l2.3,35.1c-0.7,0-5.1,0-5.1,0l0,0.6h14.9h4.8l0-20.9c0.4-0.5,0.9-0.9,1.4-1.3
		c0.5-0.4,1.1-0.6,1.7-0.9c0.6-0.2,1.2-0.4,1.8-0.5c0.6-0.1,1.2-0.2,1.8-0.2c1.3,0,2.3,0.2,3.1,0.6c0.8,0.4,1.4,0.9,1.8,1.6
		c0.4,0.7,0.7,1.5,0.9,2.5c0.1,1,0.2,2.1,0.2,3.3v12.3c0,0.4,0,2.9,0,2.9h-5.2L62.7,37z"/>
	<path class="st1" d="M7.6,36.3"/>
</g>
</svg>
