<?xml version="1.0" encoding="utf-8"?>
<!-- Generator: Adobe Illustrator 23.0.1, SVG Export Plug-In . SVG Version: 6.00 Build 0)  -->
<svg version="1.1" id="Layer_1" xmlns="http://www.w3.org/2000/svg" xmlns:xlink="http://www.w3.org/1999/xlink" x="0px" y="0px"
	 viewBox="0 0 160 75" style="enable-background:new 0 0 160 75;" xml:space="preserve">
<style type="text/css">
	.st0{fill:#D62F27;}
	.st1{fill:#FFFFFF;}
</style>
<rect class="st0" width="160" height="75"/>
<path class="st1" d="M13.86,50.87c0,0,3.65,0.05,4.2,0l2.19-30.74c-0.94,0-4.34,0-4.34,0v-1.08h9.48l8.05,21.22l2.16,6L46.1,19.08
	l4.62-0.02l2.25,31.81c1.03,0,4.11,0.05,4.11,0.05l0.11,1.03H43.94v-1.08c0,0,3.92,0,4.51,0l-2.03-29.51l-1.33,3.63l-10.5,26.96
	h-1.32L23.03,25.03l-1.7-4.82l-2.14,30.65c0.77,0,4.94,0,4.94,0v1.08H13.86V50.87z"/>
<path class="st1" d="M53.36,50.87c0,0,3.21,0,3.86,0V29.9c-0.55,0-3.86,0-3.86,0v-1.01l7.96-0.06v3.4c0.64-0.84,1.27-1.53,1.92-2.07
	c0.65-0.54,1.3-0.94,1.94-1.25c0.65-0.29,1.31-0.49,1.98-0.6c0.67-0.1,1.34-0.16,2.03-0.16c1.09,0,2.11,0.16,3.07,0.46
	c0.95,0.31,1.78,0.79,2.48,1.45c0.71,0.66,1.26,1.52,1.66,2.55c0.4,1.04,0.6,2.29,0.6,3.74v12.45c0,0.4,0.02,1.94,0.02,1.94
	l4.05,0.11l1.44,1.08l-14.3,0.01v-1.08l4.6-0.05c0,0-0.01-1.63-0.01-2.03V37.85c0-1.06-0.06-2.03-0.18-2.9
	c-0.12-0.87-0.39-1.6-0.78-2.22c-0.39-0.61-0.94-1.09-1.65-1.42c-0.71-0.33-1.64-0.5-2.79-0.5c-0.5,0-1.03,0.05-1.56,0.15
	c-0.55,0.1-1.08,0.24-1.6,0.44c-0.53,0.2-1.03,0.45-1.5,0.77c-0.48,0.32-0.9,0.7-1.27,1.15v17.54c1.14,0,0.04,0,0.04,0v1.08h-8.13
	C53.36,51.93,53.36,50.87,53.36,50.87z"/>
<path class="st1" d="M99.25,44.92l0.4,0.95c-0.79,1.67-1.45,2.6-2.38,3.47c-1.64,1.54-3.15,2.37-5.36,2.88
	c-0.32,0.07-0.64,0.15-0.95,0.18c-0.57,0.09-1.15,0.15-1.74,0.15c-2.79,0.01-6.15-1.28-8.16-3.7c-1.5-1.81-2.48-4.06-2.75-6.4
	c-0.49-4.25,0.75-8.86,3.97-11.67c2.09-1.83,4.92-2.79,7.7-2.64c1.86,0.1,3.72,0.68,5.21,1.8c2.55,1.89,4.02,5.49,3.46,8.64
	c-0.02,0.15-0.05,0.28-0.06,0.4H82.34c-0.18,3.89,0.77,6.55,2.14,8.41c0.99,1.36,2.9,2.48,4.52,2.85c1.64,0.35,2.84,0.35,4.45-0.09
	c0.87-0.23,1.26-0.45,2.07-0.88c0.42-0.22,1.37-0.98,1.69-1.32C98.61,46.41,99.25,44.92,99.25,44.92z M94.13,37.88
	c0.11-1.45,0.06-2.87-0.11-3.8c-0.17-0.93-0.46-1.76-0.87-2.47c-0.4-0.72-0.78-1.32-1.43-1.74c-0.65-0.42-1.26-0.84-2.51-0.84
	c-1.08,0-1.74,0.32-2.47,0.68c-0.73,0.37-1.36,1-1.89,1.66c-0.55,0.67-0.99,1.48-1.34,2.43c-0.35,0.95-0.88,2.66-1.06,4.08h11.68
	V37.88z"/>
<path class="st1" d="M97.01,29.9l-1.26-1.08h8.79l6.54,14.91l1.38,3.2l7.72-17l-5.87-0.05v-1.08h8.74v1.08h-1.65L111.3,52.17h-0.98
	l-9.14-20.62c-0.15-0.35-0.76-1.65-0.76-1.65"/>
<path class="st1" d="M120.09,50.87c0,0,2.74,0,3.97,0V29.9c-0.5,0-1.03,0-1.03,0v-1.08h5.24v22.05c1.85,0,2.59,0,2.59,0l1.52,1.08
	h-12.29C120.09,51.94,120.09,50.87,120.09,50.87z"/>
<path class="st1" d="M148.76,45.44c0,3.23-2.87,7.1-9.98,7.1c-4.84,0-8.31-3.63-8.31-3.63s0.7-0.77,0.87-0.99
	c2.02,1.92,4.92,3.41,7.34,3.24c1.37-0.1,2.74-0.55,3.87-1.27c1.3-0.82,2-2.2,1.98-3.76c-0.02-1.77-1.75-2.91-4.25-3.7
	c-2.07-0.65-2.99-1.05-4.92-2.02c-2.04-1.01-4.11-2.82-4.16-5.44c-0.07-3.64,2.32-5.41,3.78-6.16c2.04-1.05,4.67-0.97,6.23-0.71
	c1.98,0.33,3.62,0.94,5.34,2.11c-0.04,0.22-0.46,0.68-0.56,0.9c-1.53-0.86-3.12-1.53-4.51-1.75c-1.48-0.22-3.19-0.17-4.42,0.42
	c-1.65,0.81-2.13,2.14-2.19,3.35c-0.07,1.25,0.75,2.91,2.33,3.59c1.89,0.81,3.09,0.97,5.67,1.83
	C147.24,40.08,148.76,42.78,148.76,45.44z"/>
<circle class="st1" cx="126" cy="22.48" r="3.42"/>
<rect x="41.7" y="19.07" class="st1" width="8.82" height="1.08"/>
</svg>
