<?xml version="1.0" encoding="utf-8"?>
<!-- Generator: Adobe Illustrator 28.3.0, SVG Export Plug-In . SVG Version: 6.00 Build 0)  -->
<svg version="1.1" id="Layer_1" xmlns="http://www.w3.org/2000/svg" xmlns:xlink="http://www.w3.org/1999/xlink" x="0px" y="0px"
	 viewBox="0 0 160 75" style="enable-background:new 0 0 160 75;" xml:space="preserve">
<style type="text/css">
	.st0{fill:#D62F27;}
	.st1{fill:#CDC9BD;}
</style>
<rect x="2.41" y="3.38" class="st0" width="155.18" height="68.23"/>
<path class="st1" d="M26.12,48.13c0,0,2.99,0.04,3.44,0l1.79-25.15c-0.77,0-3.55,0-3.55,0l0-0.88h7.76l6.59,17.36l1.77,4.91
	l8.58-22.25l3.78-0.02l1.84,26.03c0.84,0,3.36,0.04,3.36,0.04l0.09,0.84H50.73l0-0.88c0,0,3.21,0,3.69,0l-1.66-24.15l-1.09,2.97
	l-8.59,22.06H42l-8.38-22.02l-1.39-3.94l-1.75,25.08c0.63,0,4.04,0,4.04,0l0,0.88h-8.4L26.12,48.13z"/>
<path class="st1" d="M58.44,48.13c0,0,2.63,0,3.16,0V30.97c-0.45,0-3.16,0-3.16,0v-0.83l6.51-0.05v2.78
	c0.52-0.69,1.04-1.25,1.57-1.69c0.53-0.44,1.06-0.77,1.59-1.02c0.53-0.24,1.07-0.4,1.62-0.49c0.55-0.08,1.1-0.13,1.66-0.13
	c0.89,0,1.73,0.13,2.51,0.38c0.78,0.25,1.46,0.65,2.03,1.19c0.58,0.54,1.03,1.24,1.36,2.09c0.33,0.85,0.49,1.87,0.49,3.06v10.19
	c0,0.33,0.02,1.59,0.02,1.59l3.31,0.09l1.18,0.88l-11.7,0.01v-0.88l3.76-0.04c0,0-0.01-1.33-0.01-1.66v-8.96
	c0-0.87-0.05-1.66-0.15-2.37c-0.1-0.71-0.32-1.31-0.64-1.82c-0.32-0.5-0.77-0.89-1.35-1.16c-0.58-0.27-1.34-0.41-2.28-0.41
	c-0.41,0-0.84,0.04-1.28,0.12c-0.45,0.08-0.88,0.2-1.31,0.36c-0.43,0.16-0.84,0.37-1.23,0.63c-0.39,0.26-0.74,0.57-1.04,0.94
	l0,14.35c0.93,0,0.03,0,0.03,0v0.88h-6.65V48.13z"/>
<path class="st1" d="M95.99,43.26c0,0,0.33,0.78,0.33,0.78c-0.65,1.37-1.19,2.13-1.95,2.84c-1.34,1.26-2.58,1.94-4.39,2.36
	c-0.26,0.06-0.52,0.12-0.78,0.15c-0.47,0.07-0.94,0.12-1.42,0.12c-2.28,0.01-5.03-1.05-6.68-3.03c-1.23-1.48-2.03-3.32-2.25-5.24
	c-0.4-3.48,0.61-7.25,3.25-9.55c1.71-1.5,4.03-2.28,6.3-2.16c1.52,0.08,3.04,0.56,4.26,1.47c2.09,1.55,3.29,4.49,2.83,7.07
	c-0.02,0.12-0.04,0.23-0.05,0.33H82.15c-0.15,3.18,0.63,5.36,1.75,6.88c0.81,1.11,2.37,2.03,3.7,2.33c1.34,0.29,2.32,0.29,3.64-0.07
	c0.71-0.19,1.03-0.37,1.69-0.72c0.34-0.18,1.12-0.8,1.38-1.08C95.47,44.48,95.99,43.26,95.99,43.26z M91.8,37.5
	c0.09-1.19,0.05-2.35-0.09-3.11c-0.14-0.76-0.38-1.44-0.71-2.02c-0.33-0.59-0.64-1.08-1.17-1.42c-0.53-0.34-1.03-0.69-2.05-0.69
	c-0.88,0-1.42,0.26-2.02,0.56c-0.6,0.3-1.11,0.82-1.55,1.36c-0.45,0.55-0.81,1.21-1.1,1.99s-0.72,2.18-0.87,3.34H91.8z"/>
<path class="st1" d="M94.16,30.97l-1.03-0.88h7.19l5.35,12.2l1.13,2.62l6.32-13.91l-4.8-0.04v-0.88h7.15v0.88h-1.35l-8.27,18.24
	h-0.8l-7.48-16.87c-0.12-0.29-0.62-1.35-0.62-1.35"/>
<path class="st1" d="M113.04,48.13c0,0,2.24,0,3.25,0V30.97c-0.41,0-0.84,0-0.84,0v-0.88h4.29v18.04c1.51,0,2.12,0,2.12,0l1.24,0.88
	h-10.06V48.13z"/>
<path class="st1" d="M136.5,43.69c0,2.64-2.35,5.81-8.17,5.81c-3.96,0-6.8-2.97-6.8-2.97s0.57-0.63,0.71-0.81
	c1.65,1.57,4.03,2.79,6.01,2.65c1.12-0.08,2.24-0.45,3.17-1.04c1.06-0.67,1.64-1.8,1.62-3.08c-0.02-1.45-1.43-2.38-3.48-3.03
	c-1.69-0.53-2.45-0.86-4.03-1.65c-1.67-0.83-3.36-2.31-3.4-4.45c-0.06-2.98,1.9-4.43,3.09-5.04c1.67-0.86,3.82-0.79,5.1-0.58
	c1.62,0.27,2.96,0.77,4.37,1.73c-0.03,0.18-0.38,0.56-0.46,0.74c-1.25-0.7-2.55-1.25-3.69-1.43c-1.21-0.18-2.61-0.14-3.62,0.34
	c-1.35,0.66-1.74,1.75-1.79,2.74c-0.06,1.02,0.61,2.38,1.91,2.94c1.55,0.66,2.53,0.79,4.64,1.5C135.26,39.3,136.5,41.51,136.5,43.69
	z"/>
<circle class="st1" cx="117.88" cy="24.9" r="2.8"/>
<rect x="48.9" y="22.11" class="st1" width="7.22" height="0.88"/>
</svg>
