<?xml version="1.0" encoding="utf-8"?>
<!-- Generator: Adobe Illustrator 23.0.1, SVG Export Plug-In . SVG Version: 6.00 Build 0)  -->
<svg version="1.1" id="Layer_1" xmlns="http://www.w3.org/2000/svg" xmlns:xlink="http://www.w3.org/1999/xlink" x="0px" y="0px"
	 viewBox="0 0 160 75" style="enable-background:new 0 0 160 75;" xml:space="preserve">
<style type="text/css">
	.st0{fill:#3C3C3C;}
	.st1{fill:#CDCABE;}
</style>
<rect class="st0" width="160" height="75"/>
<path class="st1" d="M28.01,48.97c0,0,2.85,0.04,3.27,0l1.7-23.94c-0.73,0-3.38,0-3.38,0v-0.84H37l6.27,16.52l1.68,4.67l8.17-21.18
	l3.6-0.02l1.75,24.78c0.8,0,3.2,0.04,3.2,0.04l0.09,0.8H51.44v-0.84c0,0,3.06,0,3.51,0l-1.58-22.99l-1.04,2.83l-8.18,21h-1.03
	l-7.98-20.96l-1.32-3.75l-1.67,23.87c0.6,0,3.85,0,3.85,0v0.84h-8V48.97z"/>
<path class="st1" d="M58.78,48.97c0,0,2.5,0,3.01,0V32.63c-0.43,0-3.01,0-3.01,0v-0.79l6.2-0.05v2.65c0.49-0.66,0.99-1.19,1.49-1.61
	s1.01-0.73,1.51-0.97c0.5-0.23,1.02-0.38,1.54-0.47c0.52-0.08,1.05-0.12,1.58-0.12c0.85,0,1.65,0.12,2.39,0.36s1.39,0.62,1.93,1.13
	c0.55,0.51,0.98,1.18,1.29,1.99c0.31,0.81,0.47,1.78,0.47,2.91v9.7c0,0.31,0.02,1.51,0.02,1.51l3.15,0.09l1.12,0.84l-11.14,0.01
	v-0.84l3.58-0.04c0,0-0.01-1.27-0.01-1.58v-8.53c0-0.83-0.05-1.58-0.14-2.26s-0.3-1.25-0.61-1.73c-0.3-0.48-0.73-0.85-1.29-1.1
	s-1.28-0.39-2.17-0.39c-0.39,0-0.8,0.04-1.22,0.11c-0.43,0.08-0.84,0.19-1.25,0.34s-0.8,0.35-1.17,0.6
	c-0.37,0.25-0.7,0.54-0.99,0.89v13.66c0.89,0,0.03,0,0.03,0v0.84h-6.33C58.78,49.8,58.78,48.97,58.78,48.97z"/>
<path class="st1" d="M94.52,44.33l0.31,0.74c-0.62,1.3-1.13,2.03-1.86,2.7c-1.28,1.2-2.46,1.85-4.18,2.25
	c-0.25,0.06-0.49,0.11-0.74,0.14c-0.45,0.07-0.89,0.11-1.35,0.11c-2.17,0.01-4.79-1-6.36-2.88c-1.17-1.41-1.93-3.16-2.14-4.99
	c-0.38-3.31,0.58-6.9,3.09-9.09c1.63-1.43,3.84-2.17,6-2.06c1.45,0.08,2.89,0.53,4.06,1.4c1.99,1.48,3.13,4.27,2.69,6.73
	c-0.02,0.11-0.04,0.22-0.05,0.31H81.34c-0.14,3.03,0.6,5.1,1.67,6.55c0.77,1.06,2.26,1.93,3.52,2.22c1.28,0.28,2.21,0.28,3.46-0.07
	c0.68-0.18,0.98-0.35,1.61-0.69c0.32-0.17,1.07-0.76,1.31-1.03C94.02,45.49,94.52,44.33,94.52,44.33z M90.53,38.85
	c0.09-1.13,0.05-2.24-0.09-2.96s-0.36-1.37-0.68-1.92c-0.31-0.56-0.61-1.03-1.11-1.35s-0.98-0.66-1.95-0.66
	c-0.84,0-1.35,0.25-1.92,0.53s-1.06,0.78-1.48,1.29c-0.43,0.52-0.77,1.15-1.05,1.89s-0.69,2.08-0.83,3.18L90.53,38.85L90.53,38.85z"
	/>
<path class="st1" d="M92.78,32.63L91.8,31.8h6.84l5.09,11.61l1.08,2.49l6.02-13.24l-4.57-0.04v-0.84h6.81v0.84h-1.29l-7.87,17.36
	h-0.76l-7.12-16.06c-0.11-0.28-0.59-1.29-0.59-1.29"/>
<path class="st1" d="M110.75,48.97c0,0,2.13,0,3.09,0V32.63c-0.39,0-0.8,0-0.8,0V31.8h4.08v17.17c1.44,0,2.02,0,2.02,0l1.18,0.84
	h-9.58C110.75,49.81,110.75,48.97,110.75,48.97z"/>
<path class="st1" d="M133.08,44.74c0,2.51-2.24,5.53-7.78,5.53c-3.77,0-6.47-2.83-6.47-2.83s0.54-0.6,0.68-0.77
	c1.57,1.49,3.84,2.66,5.72,2.52c1.07-0.08,2.13-0.43,3.02-0.99c1.01-0.64,1.56-1.71,1.54-2.93c-0.02-1.38-1.36-2.27-3.31-2.88
	c-1.61-0.5-2.33-0.82-3.84-1.57c-1.59-0.79-3.2-2.2-3.24-4.24c-0.06-2.84,1.81-4.22,2.94-4.8c1.59-0.82,3.64-0.75,4.85-0.55
	c1.54,0.26,2.82,0.73,4.16,1.65c-0.03,0.17-0.36,0.53-0.44,0.7c-1.19-0.67-2.43-1.19-3.51-1.36c-1.15-0.17-2.48-0.13-3.45,0.32
	c-1.29,0.63-1.66,1.67-1.7,2.61c-0.06,0.97,0.58,2.27,1.82,2.8c1.48,0.63,2.41,0.75,4.42,1.43
	C131.9,40.56,133.08,42.67,133.08,44.74z"/>
<circle class="st1" cx="115.36" cy="26.86" r="2.67"/>
<rect x="49.69" y="24.2" class="st1" width="6.87" height="0.84"/>
</svg>
