<?xml version="1.0" encoding="utf-8"?>
<!-- Generator: Adobe Illustrator 28.3.0, SVG Export Plug-In . SVG Version: 6.00 Build 0)  -->
<svg version="1.1" id="Layer_1" xmlns="http://www.w3.org/2000/svg" xmlns:xlink="http://www.w3.org/1999/xlink" x="0px" y="0px"
	 viewBox="0 0 325 203" style="enable-background:new 0 0 325 203;" xml:space="preserve">
<style type="text/css">
	.st0{fill:#D62F27;}
	.st1{fill:#CDC9BD;}
</style>
<rect x="-0.24" y="0.02" class="st0" width="324.55" height="202.59"/>
<path class="st1" d="M63.76,123.71c0,0,5.32,0.07,6.13,0l3.19-44.78c-1.38,0-6.32,0-6.32,0l0-1.56h13.82l11.74,30.91l3.16,8.74
	l15.27-39.62l6.74-0.03l3.28,46.34c1.49,0,5.99,0.08,5.99,0.08l0.16,1.49h-19.35l0-1.56c0,0,5.72,0,6.57,0l-2.95-43l-1.94,5.28
	l-15.3,39.28h-1.93L77.11,86.06l-2.47-7.01l-3.11,44.66c1.12,0,7.2,0,7.2,0l0,1.56H63.77L63.76,123.71z"/>
<path class="st1" d="M121.3,123.71c0,0,4.68,0,5.63,0V93.15c-0.8,0-5.63,0-5.63,0v-1.48l11.59-0.1v4.95
	c0.93-1.23,1.86-2.23,2.8-3.01c0.94-0.78,1.88-1.38,2.83-1.81c0.95-0.43,1.91-0.72,2.89-0.87c0.97-0.15,1.96-0.23,2.96-0.23
	c1.58,0,3.07,0.23,4.46,0.68c1.39,0.45,2.6,1.16,3.62,2.12s1.83,2.2,2.41,3.72c0.59,1.52,0.88,3.33,0.88,5.44v18.15
	c0,0.58,0.03,2.83,0.03,2.83l5.89,0.16l2.1,1.56l-20.84,0.02v-1.56l6.69-0.06c0,0-0.02-2.37-0.02-2.95v-15.96
	c0-1.55-0.09-2.96-0.27-4.22c-0.18-1.26-0.56-2.34-1.13-3.23c-0.57-0.89-1.37-1.58-2.4-2.07c-1.02-0.49-2.38-0.73-4.06-0.73
	c-0.73,0-1.49,0.07-2.29,0.21c-0.79,0.14-1.57,0.35-2.34,0.64c-0.77,0.29-1.5,0.67-2.19,1.13c-0.7,0.46-1.31,1.02-1.85,1.67l0,25.55
	c1.65,0,0.06,0,0.06,0v1.56H121.3V123.71z"/>
<path class="st1" d="M188.16,115.03c0,0,0.58,1.39,0.58,1.39c-1.16,2.43-2.11,3.79-3.47,5.06c-2.39,2.23-4.6,3.46-7.81,4.2
	c-0.46,0.1-0.92,0.21-1.38,0.27c-0.84,0.13-1.68,0.22-2.53,0.22c-4.06,0.01-8.95-1.87-11.88-5.39c-2.2-2.63-3.62-5.92-4.01-9.32
	c-0.71-6.19,1.09-12.91,5.78-17.01c3.05-2.67,7.17-4.05,11.22-3.84c2.71,0.14,5.41,0.99,7.59,2.61c3.72,2.76,5.85,7.99,5.04,12.58
	c-0.04,0.21-0.07,0.41-0.09,0.59h-23.7c-0.26,5.66,1.13,9.54,3.12,12.26c1.44,1.98,4.22,3.62,6.59,4.14
	c2.38,0.52,4.14,0.51,6.48-0.12c1.27-0.34,1.84-0.66,3.01-1.28c0.6-0.32,1.99-1.43,2.45-1.93
	C187.23,117.21,188.16,115.03,188.16,115.03z M180.69,104.77c0.17-2.11,0.1-4.19-0.16-5.54c-0.26-1.36-0.68-2.56-1.26-3.6
	c-0.58-1.04-1.14-1.92-2.08-2.54c-0.94-0.61-1.84-1.23-3.65-1.23c-1.58,0-2.54,0.46-3.6,0.99c-1.06,0.53-1.97,1.46-2.76,2.43
	c-0.79,0.97-1.44,2.16-1.96,3.55c-0.51,1.39-1.28,3.87-1.54,5.94H180.69z"/>
<path class="st1" d="M184.89,93.15l-1.84-1.56h12.79l9.52,21.73l2.01,4.67l11.25-24.76l-8.55-0.08v-1.56h12.72v1.56h-2.4
	l-14.73,32.47h-1.43l-13.31-30.04c-0.22-0.51-1.1-2.4-1.1-2.4"/>
<path class="st1" d="M218.51,123.71c0,0,3.98,0,5.78,0V93.15c-0.73,0-1.49,0-1.49,0v-1.56h7.63v32.12c2.68,0,3.78,0,3.78,0
	l2.21,1.56h-17.91V123.71z"/>
<path class="st1" d="M260.29,115.79c0,4.7-4.18,10.34-14.55,10.34c-7.05,0-12.11-5.28-12.11-5.28s1.02-1.13,1.27-1.44
	c2.94,2.8,7.17,4.96,10.7,4.72c1.99-0.13,3.99-0.8,5.64-1.85c1.89-1.2,2.92-3.21,2.88-5.48c-0.04-2.59-2.55-4.24-6.19-5.39
	c-3.01-0.95-4.37-1.54-7.17-2.93c-2.97-1.47-5.98-4.11-6.06-7.92c-0.11-5.31,3.38-7.89,5.5-8.98c2.98-1.53,6.8-1.41,9.08-1.03
	c2.89,0.48,5.26,1.37,7.78,3.09c-0.06,0.32-0.68,0.99-0.81,1.32c-2.22-1.25-4.54-2.23-6.58-2.54c-2.15-0.32-4.64-0.26-6.44,0.61
	c-2.4,1.17-3.09,3.12-3.19,4.87c-0.11,1.81,1.08,4.25,3.4,5.24c2.76,1.18,4.5,1.4,8.25,2.67
	C258.08,107.97,260.29,111.91,260.29,115.79z"/>
<circle class="st1" cx="227.13" cy="82.34" r="4.98"/>
<rect x="104.31" y="77.37" class="st1" width="12.85" height="1.56"/>
</svg>
