<?xml version="1.0" encoding="UTF-8"?>
<svg id="Layer_1" data-name="Layer 1" xmlns="http://www.w3.org/2000/svg" viewBox="0 0 155.32 37.63">
  <defs>
    <style>
      .cls-1 {
        fill: #fff;
        stroke-width: 0px;
      }
    </style>
  </defs>
  <path class="cls-1" d="M61.53,35.7h6.58s-.02-1.82-.02-2.27v-12.3c0-1.19-.06-2.28-.21-3.26-.14-.97-.42-1.81-.87-2.5-.44-.69-1.06-1.22-1.85-1.6-.79-.37-1.83-.56-3.13-.56-.56,0-1.15.05-1.77.16-.6.11-1.21.27-1.8.5s-1.16.52-1.69.88c-.54.35-1.02.78-1.43,1.28v19.7h.04v1.22h-21.23v-1.22h6.6l-2.27-33.15-1.5,4.07-11.79,30.3h-.98s-.51.01-.51.01l-.2-.54-.27-.69L12.19,6.7l-1.9-5.4-2.4,34.43c-.02.69-.07,1.22-.07,1.22H0v-1.22s6.01.06,6.63,0L9.09,1.21H2.47V0h12.4l9.05,23.83,2.43,6.75L37.69,1.21h-6.7V0h12.35l2.53,35.73h4.75V12.17h-4.8l-.06-1.13,9.46-.07v3.81c.71-.95,1.43-1.72,2.16-2.32.72-.6,1.45-1.07,2.18-1.4.74-.33,1.48-.55,2.23-.67.75-.12,1.51-.18,2.28-.18,1.23,0,2.37.18,3.44.53,1.08.35,2.01.89,2.79,1.63.79.74,1.42,1.7,1.86,2.87.45,1.17.68,2.57.68,4.2v13.99c0,.45,0,2.27,0,2.27h2.29l1.52,1.26h-15.11v-1.26Z"/>
  <path class="cls-1" d="M98.37,29.05s.77.73.77.73c-.9,1.88-1.95,3.26-2.99,4.24-1.84,1.72-3.55,2.67-6.02,3.24-.35.08-.71.16-1.07.21-.65.1-1.29.17-1.95.17-3.13,0-6.9-1.44-9.16-4.15-1.69-2.03-2.79-4.56-3.09-7.19-.54-4.77.84-9.96,4.46-13.12,2.35-2.06,5.53-3.12,8.65-2.96,2.09.11,4.17.77,5.85,2.01,2.87,2.13,4.56,5.88,3.93,9.42-.03.16-.1.6-.11.74h-18.27c-.2,4.36.87,7.35,2.4,9.45,1.11,1.52,3.25,2.79,5.08,3.19s3.19.39,4.99-.09c.98-.26,1.42-.51,2.32-.99.46-.25,1.54-1.1,1.89-1.48,1.6-1.74,2.31-3.42,2.31-3.42ZM92.61,21.14c.13-1.63.08-3.23-.12-4.27-.2-1.05-.52-1.97-.97-2.77-.45-.8-.92-1.45-1.6-1.96s-1.42-.95-2.81-.95c-1.21,0-1.97.3-2.79.71-.82.41-1.5,1.18-2.11,1.93-.61.75-1.11,1.66-1.51,2.73s-.99,2.99-1.19,4.58h13.11Z"/>
  <path class="cls-1" d="M127.31,35.73V12.17h-4.09l-11.36,25.04h-1.1l-10.26-23.16c-.17-.4-.86-1.85-.86-1.85l-2.51-.03-1.42-1.21h8.58l7.34,16.76,1.54,3.6,8.68-19.09-6.6-.06v-1.21h16.78v24.77c.78,0,2.23-.02,2.23-.02l1.77,1.24h-16.61v-1.22h7.87Z"/>
  <path class="cls-1" d="M155.32,29.65c0,3.63-3.23,7.98-11.23,7.98-5.44,0-9.34-4.08-9.34-4.08,0,0,.79-.87.98-1.11,2.27,2.16,5.54,3.83,8.26,3.64,1.54-.1,3.08-.62,4.35-1.43,1.46-.92,2.25-2.48,2.23-4.23-.03-2-1.97-3.27-4.78-4.16-2.33-.73-3.37-1.19-5.54-2.26-2.29-1.14-4.62-3.17-4.68-6.11-.08-4.1,2.61-6.09,4.24-6.93,2.3-1.18,5.25-1.09,7.01-.8,2.23.37,4.06,1.06,6.01,2.38-.05.25-.53.77-.63,1.02-1.71-.96-3.51-1.72-5.08-1.96-1.66-.25-3.58-.2-4.97.47-1.86.9-2.38,2.41-2.47,3.76s.83,3.28,2.62,4.04c2.13.91,3.47,1.08,6.37,2.06,4.93,1.67,6.64,4.71,6.64,7.7Z"/>
  <circle class="cls-1" cx="129.5" cy="4.9" r="3.84"/>
</svg>